<svg width="250" height="191" viewBox="0 0 250 191" fill="none" xmlns="http://www.w3.org/2000/svg">
<path fill-rule="evenodd" clip-rule="evenodd" d="M125 0C55.9646 0 0 55.9646 0 125C0 194.035 55.9646 250 125 250C194.035 250 250 194.035 250 125C249.922 55.9969 194.003 0.078125 125 0ZM125 241.667C60.5667 241.667 8.33333 189.433 8.33333 125C8.33333 60.5667 60.5667 8.33333 125 8.33333C189.433 8.33333 241.667 60.5667 241.667 125C241.593 189.403 189.403 241.593 125 241.667ZM174.358 75.4542L177.033 84.2584C179.284 91.6833 179.757 99.5339 178.413 107.175C177.189 113.602 173.111 119.126 167.329 122.188L170.342 189.446C170.684 193.093 169.474 196.716 167.008 199.425C166.715 199.746 166.408 200.053 166.087 200.346C160.155 205.77 150.948 205.357 145.525 199.425C143.003 196.636 141.791 192.905 142.192 189.167L145.188 122.196C139.398 119.135 135.314 113.608 134.087 107.175C132.743 99.5339 133.216 91.6833 135.467 84.2584L138.142 75.4542C140.053 69.8281 144.471 65.4099 150.097 63.4985C160.098 60.1005 170.96 65.4531 174.358 75.4542ZM161.558 115.679C166.008 114.139 169.302 110.347 170.204 105.725C171.317 99.3813 170.924 92.8646 169.058 86.7L166.383 77.8917C165.289 74.9333 162.957 72.6005 159.998 71.5063C154.401 69.4365 148.186 72.2953 146.117 77.8917L143.442 86.7C141.574 92.8641 141.181 99.3813 142.296 105.725C143.198 110.347 146.492 114.139 150.942 115.679C152.631 116.314 153.719 117.964 153.638 119.767L150.496 189.829C150.285 191.294 150.733 192.777 151.721 193.879C154.23 196.363 158.27 196.363 160.779 193.879C161.72 192.859 162.175 191.484 162.029 190.104L158.863 119.767C158.781 117.964 159.869 116.314 161.558 115.679ZM108.333 66.6667C108.333 64.3656 110.199 62.5 112.5 62.5C114.801 62.5 116.667 64.3656 116.667 66.6672V104.167C116.667 105.272 116.227 106.332 115.446 107.113L104.254 118.309L107.808 189.388C107.831 189.844 107.831 190.301 107.808 190.757C107.43 198.521 100.829 204.509 93.0651 204.131C85.301 203.753 79.3135 197.152 79.6917 189.388L83.2458 118.308L72.0542 107.113C71.2729 106.331 70.8333 105.272 70.8333 104.167V66.6667C70.8333 64.3656 72.699 62.5 75 62.5C77.301 62.5 79.1667 64.3656 79.1667 66.6667V102.442L90.45 113.721C91.2828 114.553 91.725 115.699 91.6667 116.875L87.9958 189.792C87.9089 191.364 88.4792 192.902 89.5708 194.038C89.5828 194.049 89.5948 194.062 89.6073 194.074C91.9089 196.355 95.6234 196.339 97.9042 194.038C98.9953 192.902 99.5662 191.364 99.4792 189.792L95.8333 116.875C95.776 115.698 96.2198 114.552 97.0542 113.721L108.333 102.442V66.6667ZM87.5 62.5C85.199 62.5 83.3334 64.3656 83.3334 66.6667V100C83.3334 102.301 85.199 104.167 87.5 104.167C89.8011 104.167 91.6667 102.301 91.6667 100V66.6667C91.6667 64.3656 89.8011 62.5 87.5 62.5ZM95.8333 66.6667C95.8333 64.3656 97.6989 62.5 99.9999 62.5C102.301 62.5 104.167 64.3656 104.167 66.6667V100C104.167 102.301 102.301 104.167 99.9999 104.167C97.6989 104.167 95.8333 102.301 95.8333 100V66.6667ZM133.973 199.472C136.264 199.249 138.302 200.924 138.525 203.215C138.749 205.505 137.073 207.543 134.783 207.766C128.277 208.526 121.706 208.526 115.2 207.766C112.913 207.498 111.278 205.428 111.546 203.141C111.814 200.855 113.884 199.219 116.171 199.487C122.037 200.168 127.963 200.168 133.829 199.487L133.812 199.491C133.866 199.484 133.92 199.478 133.973 199.472ZM188.75 71.3082C187.271 69.5452 184.643 69.3144 182.88 70.7936C182.875 70.7983 182.869 70.8035 182.863 70.8082C181.104 72.2915 180.88 74.9196 182.363 76.679C207.485 106.502 205.563 150.6 177.942 178.125C176.311 179.749 176.307 182.388 177.931 184.019C179.556 185.649 182.195 185.654 183.825 184.029C214.521 153.449 216.662 104.448 188.75 71.3082ZM97.0708 55.0746C97.0732 55.0746 97.0757 55.0751 97.0782 55.0751H97.0584C97.0629 55.0751 97.0668 55.0746 97.0708 55.0746ZM144.654 43.9959C128.37 40.0933 111.292 41.1423 95.6084 47.0084C93.4543 47.8183 92.3652 50.2214 93.1751 52.3751C93.7855 53.9985 95.3376 55.073 97.0714 55.0746C97.5699 55.0719 98.0636 54.9808 98.5293 54.8042C112.653 49.5225 128.032 48.5792 142.696 52.0959C144.933 52.6365 147.185 51.2621 147.725 49.0251C148.266 46.7881 146.891 44.5365 144.654 43.9959ZM50 125C49.9521 144.848 57.8245 163.894 71.8709 177.917C73.5 179.547 73.499 182.19 71.8688 183.819C70.2386 185.448 67.5958 185.447 65.9667 183.817C37.0589 154.808 33.5141 109.094 57.6042 75.975C57.6276 75.9417 57.6516 75.9089 57.6761 75.876C59.0589 74.0365 61.6708 73.6661 63.5104 75.049C65.35 76.4318 65.7203 79.0438 64.3375 80.8833C54.9818 93.6865 49.9589 109.143 50 125Z" fill="white"/>
</svg>
