<svg width="280" height="280" viewBox="0 0 280 280" fill="none" xmlns="http://www.w3.org/2000/svg">
<g opacity="0.2">
<mask id="mask0_19_4" style="mask-type:alpha" maskUnits="userSpaceOnUse" x="0" y="0" width="280" height="280">
<path d="M0 6C0 2.6863 2.68629 0 6 0H274C277.314 0 280 2.68629 280 6V274C280 277.314 277.314 280 274 280H6C2.6863 280 0 277.314 0 274V6Z" fill="#FFF2F2"/>
</mask>
<g mask="url(#mask0_19_4)">
<path fill-rule="evenodd" clip-rule="evenodd" d="M205.424 171.017H247C249.087 171.017 250.78 172.709 250.78 174.797V352.441C250.78 354.528 249.087 356.22 247 356.22C244.913 356.22 243.22 354.528 243.22 352.441V178.576H205.424V356.22C205.424 358.308 203.731 360 201.644 360H73.1356C71.0483 360 69.3559 358.308 69.3559 356.22V201.254H31.5593V352.441C31.5593 354.528 29.867 356.22 27.7797 356.22C25.6923 356.22 24 354.528 24 352.441V197.475C24 195.387 25.6923 193.695 27.7797 193.695H69.3559V140.78C69.3559 138.692 71.0483 137 73.1356 137H201.644C203.731 137 205.424 138.692 205.424 140.78V171.017ZM118.492 352.441H133.61V318.424H118.492V352.441ZM141.169 352.441H156.288V318.424H141.169V352.441ZM163.847 352.441H197.864V144.559H76.9153V352.441H110.932V314.644C110.932 312.557 112.625 310.864 114.712 310.864H160.068C162.155 310.864 163.847 312.557 163.847 314.644V352.441ZM88.2543 152.118H110.932C113.02 152.118 114.712 153.811 114.712 155.898V178.576C114.712 180.663 113.02 182.356 110.932 182.356H88.2543C86.167 182.356 84.4746 180.663 84.4746 178.576V155.898C84.4746 153.811 86.167 152.118 88.2543 152.118ZM92.0339 174.796H107.153V159.678H92.0339V174.796ZM148.729 152.118H126.051C123.964 152.118 122.271 153.811 122.271 155.898V178.576C122.271 180.663 123.964 182.356 126.051 182.356H148.729C150.816 182.356 152.508 180.663 152.508 178.576V155.898C152.508 153.811 150.816 152.118 148.729 152.118ZM144.949 174.796H129.831V159.678H144.949V174.796ZM163.847 152.118H186.525C188.613 152.118 190.305 153.811 190.305 155.898V178.576C190.305 180.663 188.613 182.356 186.525 182.356H163.847C161.76 182.356 160.068 180.663 160.068 178.576V155.898C160.068 153.811 161.76 152.118 163.847 152.118ZM167.627 174.796H182.746V159.678H167.627V174.796ZM110.932 189.915H88.2543C86.167 189.915 84.4746 191.607 84.4746 193.694V216.372C84.4746 218.46 86.167 220.152 88.2543 220.152H110.932C113.02 220.152 114.712 218.46 114.712 216.372V193.694C114.712 191.607 113.02 189.915 110.932 189.915ZM107.153 212.593H92.0339V197.474H107.153V212.593ZM126.051 189.915H148.729C150.816 189.915 152.508 191.607 152.508 193.694V216.372C152.508 218.46 150.816 220.152 148.729 220.152H126.051C123.964 220.152 122.271 218.46 122.271 216.372V193.694C122.271 191.607 123.964 189.915 126.051 189.915ZM129.831 212.593H144.949V197.474H129.831V212.593ZM186.525 189.915H163.847C161.76 189.915 160.068 191.607 160.068 193.694V216.372C160.068 218.46 161.76 220.152 163.847 220.152H186.525C188.613 220.152 190.305 218.46 190.305 216.372V193.694C190.305 191.607 188.613 189.915 186.525 189.915ZM182.746 212.593H167.627V197.474H182.746V212.593ZM88.2543 227.711H110.932C113.02 227.711 114.712 229.404 114.712 231.491V254.169C114.712 256.256 113.02 257.949 110.932 257.949H88.2543C86.167 257.949 84.4746 256.256 84.4746 254.169V231.491C84.4746 229.404 86.167 227.711 88.2543 227.711ZM92.0339 250.389H107.153V235.271H92.0339V250.389ZM148.729 227.711H126.051C123.964 227.711 122.271 229.404 122.271 231.491V254.169C122.271 256.256 123.964 257.949 126.051 257.949H148.729C150.816 257.949 152.508 256.256 152.508 254.169V231.491C152.508 229.404 150.816 227.711 148.729 227.711ZM144.949 250.389H129.831V235.271H144.949V250.389ZM163.847 227.711H186.525C188.613 227.711 190.305 229.404 190.305 231.491V254.169C190.305 256.256 188.613 257.949 186.525 257.949H163.847C161.76 257.949 160.068 256.256 160.068 254.169V231.491C160.068 229.404 161.76 227.711 163.847 227.711ZM167.627 250.389H182.746V235.271H167.627V250.389ZM110.932 265.508H88.2543C86.167 265.508 84.4746 267.201 84.4746 269.288V291.966C84.4746 294.053 86.167 295.746 88.2543 295.746H110.932C113.02 295.746 114.712 294.053 114.712 291.966V269.288C114.712 267.201 113.02 265.508 110.932 265.508ZM107.153 288.186H92.0339V273.068H107.153V288.186ZM126.051 265.508H148.729C150.816 265.508 152.508 267.201 152.508 269.288V291.966C152.508 294.053 150.816 295.746 148.729 295.746H126.051C123.964 295.746 122.271 294.053 122.271 291.966V269.288C122.271 267.201 123.964 265.508 126.051 265.508ZM129.831 288.186H144.949V273.068H129.831V288.186ZM186.525 265.508H163.847C161.76 265.508 160.068 267.201 160.068 269.288V291.966C160.068 294.053 161.76 295.746 163.847 295.746H186.525C188.613 295.746 190.305 294.053 190.305 291.966V269.288C190.305 267.201 188.613 265.508 186.525 265.508ZM182.746 288.186H167.627V273.068H182.746V288.186ZM42.8983 208.813H46.678C48.7653 208.813 50.4576 210.506 50.4576 212.593V216.373C50.4576 218.46 48.7653 220.152 46.678 220.152H42.8983C40.811 220.152 39.1186 218.46 39.1186 216.373V212.593C39.1186 210.506 40.811 208.813 42.8983 208.813ZM61.7966 208.813H58.0169C55.9296 208.813 54.2373 210.506 54.2373 212.593V216.373C54.2373 218.46 55.9296 220.152 58.0169 220.152H61.7966C63.8839 220.152 65.5762 218.46 65.5762 216.373V212.593C65.5762 210.506 63.8839 208.813 61.7966 208.813ZM42.8983 223.932H46.678C48.7653 223.932 50.4576 225.624 50.4576 227.711V231.491C50.4576 233.578 48.7653 235.271 46.678 235.271H42.8983C40.811 235.271 39.1186 233.578 39.1186 231.491V227.711C39.1186 225.624 40.811 223.932 42.8983 223.932ZM61.7966 223.932H58.0169C55.9296 223.932 54.2373 225.624 54.2373 227.711V231.491C54.2373 233.578 55.9296 235.271 58.0169 235.271H61.7966C63.8839 235.271 65.5762 233.578 65.5762 231.491V227.711C65.5762 225.624 63.8839 223.932 61.7966 223.932ZM42.8983 239.05H46.678C48.7653 239.05 50.4576 240.743 50.4576 242.83V246.61C50.4576 248.697 48.7653 250.389 46.678 250.389H42.8983C40.811 250.389 39.1186 248.697 39.1186 246.61V242.83C39.1186 240.743 40.811 239.05 42.8983 239.05ZM61.7966 239.05H58.0169C55.9296 239.05 54.2373 240.743 54.2373 242.83V246.61C54.2373 248.697 55.9296 250.389 58.0169 250.389H61.7966C63.8839 250.389 65.5762 248.697 65.5762 246.61V242.83C65.5762 240.743 63.8839 239.05 61.7966 239.05ZM42.8983 254.169H46.678C48.7653 254.169 50.4576 255.862 50.4576 257.949V261.729C50.4576 263.816 48.7653 265.508 46.678 265.508H42.8983C40.811 265.508 39.1186 263.816 39.1186 261.729V257.949C39.1186 255.862 40.811 254.169 42.8983 254.169ZM61.7966 254.169H58.0169C55.9296 254.169 54.2373 255.862 54.2373 257.949V261.729C54.2373 263.816 55.9296 265.508 58.0169 265.508H61.7966C63.8839 265.508 65.5762 263.816 65.5762 261.729V257.949C65.5762 255.862 63.8839 254.169 61.7966 254.169ZM42.8983 269.288H46.678C48.7653 269.288 50.4576 270.98 50.4576 273.068V276.847C50.4576 278.935 48.7653 280.627 46.678 280.627H42.8983C40.811 280.627 39.1186 278.935 39.1186 276.847V273.068C39.1186 270.98 40.811 269.288 42.8983 269.288ZM61.7966 269.288H58.0169C55.9296 269.288 54.2373 270.98 54.2373 273.068V276.847C54.2373 278.935 55.9296 280.627 58.0169 280.627H61.7966C63.8839 280.627 65.5762 278.935 65.5762 276.847V273.068C65.5762 270.98 63.8839 269.288 61.7966 269.288ZM42.8983 284.406H46.678C48.7653 284.406 50.4576 286.099 50.4576 288.186V291.966C50.4576 294.053 48.7653 295.745 46.678 295.745H42.8983C40.811 295.745 39.1186 294.053 39.1186 291.966V288.186C39.1186 286.099 40.811 284.406 42.8983 284.406ZM61.7966 284.406H58.0169C55.9296 284.406 54.2373 286.099 54.2373 288.186V291.966C54.2373 294.053 55.9296 295.745 58.0169 295.745H61.7966C63.8839 295.745 65.5762 294.053 65.5762 291.966V288.186C65.5762 286.099 63.8839 284.406 61.7966 284.406ZM42.8983 299.525H46.678C48.7653 299.525 50.4576 301.217 50.4576 303.304V307.084C50.4576 309.171 48.7653 310.864 46.678 310.864H42.8983C40.811 310.864 39.1186 309.171 39.1186 307.084V303.304C39.1186 301.217 40.811 299.525 42.8983 299.525ZM61.7966 299.525H58.0169C55.9296 299.525 54.2373 301.217 54.2373 303.304V307.084C54.2373 309.171 55.9296 310.864 58.0169 310.864H61.7966C63.8839 310.864 65.5762 309.171 65.5762 307.084V303.304C65.5762 301.217 63.8839 299.525 61.7966 299.525ZM42.8983 314.644H46.678C48.7653 314.644 50.4576 316.336 50.4576 318.424V322.203C50.4576 324.291 48.7653 325.983 46.678 325.983H42.8983C40.811 325.983 39.1186 324.291 39.1186 322.203V318.424C39.1186 316.336 40.811 314.644 42.8983 314.644ZM61.7966 314.644H58.0169C55.9296 314.644 54.2373 316.336 54.2373 318.424V322.203C54.2373 324.291 55.9296 325.983 58.0169 325.983H61.7966C63.8839 325.983 65.5762 324.291 65.5762 322.203V318.424C65.5762 316.336 63.8839 314.644 61.7966 314.644ZM42.8983 329.762H46.678C48.7653 329.762 50.4576 331.455 50.4576 333.542V337.322C50.4576 339.409 48.7653 341.101 46.678 341.101H42.8983C40.811 341.101 39.1186 339.409 39.1186 337.322V333.542C39.1186 331.455 40.811 329.762 42.8983 329.762ZM61.7966 329.762H58.0169C55.9296 329.762 54.2373 331.455 54.2373 333.542V337.322C54.2373 339.409 55.9296 341.101 58.0169 341.101H61.7966C63.8839 341.101 65.5762 339.409 65.5762 337.322V333.542C65.5762 331.455 63.8839 329.762 61.7966 329.762ZM216.763 186.135H231.881C233.969 186.135 235.661 187.827 235.661 189.915V205.033C235.661 207.121 233.969 208.813 231.881 208.813H216.763C214.675 208.813 212.983 207.121 212.983 205.033V189.915C212.983 187.827 214.675 186.135 216.763 186.135ZM220.542 201.254H228.102V193.694H220.542V201.254ZM231.881 216.373H216.763C214.675 216.373 212.983 218.065 212.983 220.152V235.271C212.983 237.358 214.675 239.051 216.763 239.051H231.881C233.969 239.051 235.661 237.358 235.661 235.271V220.152C235.661 218.065 233.969 216.373 231.881 216.373ZM228.102 231.491H220.542V223.932H228.102V231.491ZM216.763 246.61H231.881C233.969 246.61 235.661 248.302 235.661 250.389V265.508C235.661 267.595 233.969 269.288 231.881 269.288H216.763C214.675 269.288 212.983 267.595 212.983 265.508V250.389C212.983 248.302 214.675 246.61 216.763 246.61ZM220.542 261.728H228.102V254.169H220.542V261.728ZM231.881 276.847H216.763C214.675 276.847 212.983 278.539 212.983 280.627V295.745C212.983 297.833 214.675 299.525 216.763 299.525H231.881C233.969 299.525 235.661 297.833 235.661 295.745V280.627C235.661 278.539 233.969 276.847 231.881 276.847ZM228.102 291.966H220.542V284.406H228.102V291.966ZM216.763 307.085H231.881C233.969 307.085 235.661 308.777 235.661 310.864V325.983C235.661 328.07 233.969 329.763 231.881 329.763H216.763C214.675 329.763 212.983 328.07 212.983 325.983V310.864C212.983 308.777 214.675 307.085 216.763 307.085ZM220.542 322.203H228.102V314.644H220.542V322.203Z" fill="white"/>
</g>
</g>
</svg>
