<svg width="227" height="143" viewBox="0 0 227 143" fill="none" xmlns="http://www.w3.org/2000/svg">
<path fill-rule="evenodd" clip-rule="evenodd" d="M181.424 34.0169H223C225.087 34.0169 226.78 35.7093 226.78 37.7966V215.441C226.78 217.528 225.087 219.22 223 219.22C220.913 219.22 219.22 217.528 219.22 215.441V41.5763H181.424V219.22C181.424 221.308 179.731 223 177.644 223H49.1356C47.0483 223 45.3559 221.308 45.3559 219.22V64.2542H7.55932V215.441C7.55932 217.528 5.86698 219.22 3.77966 219.22C1.69234 219.22 0 217.528 0 215.441V60.4746C0 58.3873 1.69234 56.6949 3.77966 56.6949H45.3559V3.77966C45.3559 1.69234 47.0483 0 49.1356 0H177.644C179.731 0 181.424 1.69234 181.424 3.77966V34.0169ZM94.4915 215.441H109.61V181.424H94.4915V215.441ZM117.169 215.441H132.288V181.424H117.169V215.441ZM139.847 215.441H173.864V7.55932H52.9153V215.441H86.9322V177.644C86.9322 175.557 88.6245 173.864 90.7119 173.864H136.068C138.155 173.864 139.847 175.557 139.847 177.644V215.441ZM64.2543 15.1185H86.9322C89.0196 15.1185 90.7119 16.8108 90.7119 18.8981V41.5761C90.7119 43.6634 89.0196 45.3558 86.9322 45.3558H64.2543C62.167 45.3558 60.4746 43.6634 60.4746 41.5761V18.8981C60.4746 16.8108 62.167 15.1185 64.2543 15.1185ZM68.0339 37.7964H83.1526V22.6778H68.0339V37.7964ZM124.729 15.1185H102.051C99.9635 15.1185 98.2712 16.8108 98.2712 18.8981V41.5761C98.2712 43.6634 99.9635 45.3558 102.051 45.3558H124.729C126.816 45.3558 128.508 43.6634 128.508 41.5761V18.8981C128.508 16.8108 126.816 15.1185 124.729 15.1185ZM120.949 37.7964H105.831V22.6778H120.949V37.7964ZM139.847 15.1185H162.525C164.613 15.1185 166.305 16.8108 166.305 18.8981V41.5761C166.305 43.6634 164.613 45.3558 162.525 45.3558H139.847C137.76 45.3558 136.068 43.6634 136.068 41.5761V18.8981C136.068 16.8108 137.76 15.1185 139.847 15.1185ZM143.627 37.7964H158.746V22.6778H143.627V37.7964ZM86.9322 52.9146H64.2543C62.167 52.9146 60.4746 54.607 60.4746 56.6943V79.3722C60.4746 81.4596 62.167 83.1519 64.2543 83.1519H86.9322C89.0196 83.1519 90.7119 81.4596 90.7119 79.3722V56.6943C90.7119 54.607 89.0196 52.9146 86.9322 52.9146ZM83.1526 75.5926H68.0339V60.4739H83.1526V75.5926ZM102.051 52.9146H124.729C126.816 52.9146 128.508 54.607 128.508 56.6943V79.3722C128.508 81.4596 126.816 83.1519 124.729 83.1519H102.051C99.9635 83.1519 98.2712 81.4596 98.2712 79.3722V56.6943C98.2712 54.607 99.9635 52.9146 102.051 52.9146ZM105.831 75.5926H120.949V60.4739H105.831V75.5926ZM162.525 52.9146H139.847C137.76 52.9146 136.068 54.607 136.068 56.6943V79.3722C136.068 81.4596 137.76 83.1519 139.847 83.1519H162.525C164.613 83.1519 166.305 81.4596 166.305 79.3722V56.6943C166.305 54.607 164.613 52.9146 162.525 52.9146ZM158.746 75.5926H143.627V60.4739H158.746V75.5926ZM64.2543 90.7115H86.9322C89.0196 90.7115 90.7119 92.4038 90.7119 94.4911V117.169C90.7119 119.256 89.0196 120.949 86.9322 120.949H64.2543C62.167 120.949 60.4746 119.256 60.4746 117.169V94.4911C60.4746 92.4038 62.167 90.7115 64.2543 90.7115ZM68.0339 113.389H83.1526V98.2708H68.0339V113.389ZM124.729 90.7115H102.051C99.9635 90.7115 98.2712 92.4038 98.2712 94.4911V117.169C98.2712 119.256 99.9635 120.949 102.051 120.949H124.729C126.816 120.949 128.508 119.256 128.508 117.169V94.4911C128.508 92.4038 126.816 90.7115 124.729 90.7115ZM120.949 113.389H105.831V98.2708H120.949V113.389ZM139.847 90.7115H162.525C164.613 90.7115 166.305 92.4038 166.305 94.4911V117.169C166.305 119.256 164.613 120.949 162.525 120.949H139.847C137.76 120.949 136.068 119.256 136.068 117.169V94.4911C136.068 92.4038 137.76 90.7115 139.847 90.7115ZM143.627 113.389H158.746V98.2708H143.627V113.389ZM86.9322 128.508H64.2543C62.167 128.508 60.4746 130.201 60.4746 132.288V154.966C60.4746 157.053 62.167 158.746 64.2543 158.746H86.9322C89.0196 158.746 90.7119 157.053 90.7119 154.966V132.288C90.7119 130.201 89.0196 128.508 86.9322 128.508ZM83.1526 151.186H68.0339V136.068H83.1526V151.186ZM102.051 128.508H124.729C126.816 128.508 128.508 130.201 128.508 132.288V154.966C128.508 157.053 126.816 158.746 124.729 158.746H102.051C99.9635 158.746 98.2712 157.053 98.2712 154.966V132.288C98.2712 130.201 99.9635 128.508 102.051 128.508ZM105.831 151.186H120.949V136.068H105.831V151.186ZM162.525 128.508H139.847C137.76 128.508 136.068 130.201 136.068 132.288V154.966C136.068 157.053 137.76 158.746 139.847 158.746H162.525C164.613 158.746 166.305 157.053 166.305 154.966V132.288C166.305 130.201 164.613 128.508 162.525 128.508ZM158.746 151.186H143.627V136.068H158.746V151.186ZM18.8983 71.8134H22.678C24.7653 71.8134 26.4576 73.5057 26.4576 75.593V79.3727C26.4576 81.46 24.7653 83.1523 22.678 83.1523H18.8983C16.811 83.1523 15.1186 81.46 15.1186 79.3727V75.593C15.1186 73.5057 16.811 71.8134 18.8983 71.8134ZM37.7966 71.8134H34.0169C31.9296 71.8134 30.2373 73.5057 30.2373 75.593V79.3727C30.2373 81.46 31.9296 83.1523 34.0169 83.1523H37.7966C39.8839 83.1523 41.5762 81.46 41.5762 79.3727V75.593C41.5762 73.5057 39.8839 71.8134 37.7966 71.8134ZM18.8983 86.9318H22.678C24.7653 86.9318 26.4576 88.6242 26.4576 90.7115V94.4911C26.4576 96.5785 24.7653 98.2708 22.678 98.2708H18.8983C16.811 98.2708 15.1186 96.5785 15.1186 94.4911V90.7115C15.1186 88.6242 16.811 86.9318 18.8983 86.9318ZM37.7966 86.9318H34.0169C31.9296 86.9318 30.2373 88.6242 30.2373 90.7115V94.4911C30.2373 96.5785 31.9296 98.2708 34.0169 98.2708H37.7966C39.8839 98.2708 41.5762 96.5785 41.5762 94.4911V90.7115C41.5762 88.6242 39.8839 86.9318 37.7966 86.9318ZM18.8983 102.05H22.678C24.7653 102.05 26.4576 103.743 26.4576 105.83V109.61C26.4576 111.697 24.7653 113.389 22.678 113.389H18.8983C16.811 113.389 15.1186 111.697 15.1186 109.61V105.83C15.1186 103.743 16.811 102.05 18.8983 102.05ZM37.7966 102.05H34.0169C31.9296 102.05 30.2373 103.743 30.2373 105.83V109.61C30.2373 111.697 31.9296 113.389 34.0169 113.389H37.7966C39.8839 113.389 41.5762 111.697 41.5762 109.61V105.83C41.5762 103.743 39.8839 102.05 37.7966 102.05ZM18.8983 117.169H22.678C24.7653 117.169 26.4576 118.862 26.4576 120.949V124.729C26.4576 126.816 24.7653 128.508 22.678 128.508H18.8983C16.811 128.508 15.1186 126.816 15.1186 124.729V120.949C15.1186 118.862 16.811 117.169 18.8983 117.169ZM37.7966 117.169H34.0169C31.9296 117.169 30.2373 118.862 30.2373 120.949V124.729C30.2373 126.816 31.9296 128.508 34.0169 128.508H37.7966C39.8839 128.508 41.5762 126.816 41.5762 124.729V120.949C41.5762 118.862 39.8839 117.169 37.7966 117.169ZM18.8983 132.288H22.678C24.7653 132.288 26.4576 133.98 26.4576 136.068V139.847C26.4576 141.935 24.7653 143.627 22.678 143.627H18.8983C16.811 143.627 15.1186 141.935 15.1186 139.847V136.068C15.1186 133.98 16.811 132.288 18.8983 132.288ZM37.7966 132.288H34.0169C31.9296 132.288 30.2373 133.98 30.2373 136.068V139.847C30.2373 141.935 31.9296 143.627 34.0169 143.627H37.7966C39.8839 143.627 41.5762 141.935 41.5762 139.847V136.068C41.5762 133.98 39.8839 132.288 37.7966 132.288ZM18.8983 147.406H22.678C24.7653 147.406 26.4576 149.099 26.4576 151.186V154.966C26.4576 157.053 24.7653 158.745 22.678 158.745H18.8983C16.811 158.745 15.1186 157.053 15.1186 154.966V151.186C15.1186 149.099 16.811 147.406 18.8983 147.406ZM37.7966 147.406H34.0169C31.9296 147.406 30.2373 149.099 30.2373 151.186V154.966C30.2373 157.053 31.9296 158.745 34.0169 158.745H37.7966C39.8839 158.745 41.5762 157.053 41.5762 154.966V151.186C41.5762 149.099 39.8839 147.406 37.7966 147.406ZM18.8983 162.525H22.678C24.7653 162.525 26.4576 164.217 26.4576 166.304V170.084C26.4576 172.171 24.7653 173.864 22.678 173.864H18.8983C16.811 173.864 15.1186 172.171 15.1186 170.084V166.304C15.1186 164.217 16.811 162.525 18.8983 162.525ZM37.7966 162.525H34.0169C31.9296 162.525 30.2373 164.217 30.2373 166.304V170.084C30.2373 172.171 31.9296 173.864 34.0169 173.864H37.7966C39.8839 173.864 41.5762 172.171 41.5762 170.084V166.304C41.5762 164.217 39.8839 162.525 37.7966 162.525ZM18.8983 177.644H22.678C24.7653 177.644 26.4576 179.336 26.4576 181.424V185.203C26.4576 187.291 24.7653 188.983 22.678 188.983H18.8983C16.811 188.983 15.1186 187.291 15.1186 185.203V181.424C15.1186 179.336 16.811 177.644 18.8983 177.644ZM37.7966 177.644H34.0169C31.9296 177.644 30.2373 179.336 30.2373 181.424V185.203C30.2373 187.291 31.9296 188.983 34.0169 188.983H37.7966C39.8839 188.983 41.5762 187.291 41.5762 185.203V181.424C41.5762 179.336 39.8839 177.644 37.7966 177.644ZM18.8983 192.762H22.678C24.7653 192.762 26.4576 194.455 26.4576 196.542V200.322C26.4576 202.409 24.7653 204.101 22.678 204.101H18.8983C16.811 204.101 15.1186 202.409 15.1186 200.322V196.542C15.1186 194.455 16.811 192.762 18.8983 192.762ZM37.7966 192.762H34.0169C31.9296 192.762 30.2373 194.455 30.2373 196.542V200.322C30.2373 202.409 31.9296 204.101 34.0169 204.101H37.7966C39.8839 204.101 41.5762 202.409 41.5762 200.322V196.542C41.5762 194.455 39.8839 192.762 37.7966 192.762ZM192.763 49.135H207.881C209.969 49.135 211.661 50.8274 211.661 52.9147V68.0333C211.661 70.1206 209.969 71.813 207.881 71.813H192.763C190.675 71.813 188.983 70.1206 188.983 68.0333V52.9147C188.983 50.8274 190.675 49.135 192.763 49.135ZM196.542 64.2537H204.102V56.6943H196.542V64.2537ZM207.881 79.3726H192.763C190.675 79.3726 188.983 81.065 188.983 83.1523V98.2709C188.983 100.358 190.675 102.051 192.763 102.051H207.881C209.969 102.051 211.661 100.358 211.661 98.2709V83.1523C211.661 81.065 209.969 79.3726 207.881 79.3726ZM204.102 94.4913H196.542V86.932H204.102V94.4913ZM192.763 109.61H207.881C209.969 109.61 211.661 111.302 211.661 113.389V128.508C211.661 130.595 209.969 132.288 207.881 132.288H192.763C190.675 132.288 188.983 130.595 188.983 128.508V113.389C188.983 111.302 190.675 109.61 192.763 109.61ZM196.542 124.728H204.102V117.169H196.542V124.728ZM207.881 139.847H192.763C190.675 139.847 188.983 141.539 188.983 143.627V158.745C188.983 160.833 190.675 162.525 192.763 162.525H207.881C209.969 162.525 211.661 160.833 211.661 158.745V143.627C211.661 141.539 209.969 139.847 207.881 139.847ZM204.102 154.966H196.542V147.406H204.102V154.966ZM192.763 170.085H207.881C209.969 170.085 211.661 171.777 211.661 173.864V188.983C211.661 191.07 209.969 192.763 207.881 192.763H192.763C190.675 192.763 188.983 191.07 188.983 188.983V173.864C188.983 171.777 190.675 170.085 192.763 170.085ZM196.542 185.203H204.102V177.644H196.542V185.203Z" fill="white"/>
</svg>
