<svg width="106" height="40" viewBox="0 0 106 40" fill="none" xmlns="http://www.w3.org/2000/svg">
<path fill-rule="evenodd" clip-rule="evenodd" d="M30.3188 12.1213C30.3188 14.2508 29.4035 16.1666 27.9449 17.4967L28.006 17.5579L15.1495 30.4144L4.86426 20.1292L17.2021 7.79139C18.5273 6.00572 20.6515 4.84851 23.046 4.84851C27.0626 4.84851 30.3188 8.10464 30.3188 12.1213ZM23.6628 14.6235C25.3239 14.6235 26.6705 13.2769 26.6705 11.6157C26.6705 9.95458 25.3239 8.60796 23.6628 8.60796C22.0016 8.60796 20.655 9.95458 20.655 11.6157C20.655 13.2769 22.0016 14.6235 23.6628 14.6235Z" fill="url(#paint0_linear_505_672)"/>
<path fill-rule="evenodd" clip-rule="evenodd" d="M0.0155806 31.5151V23.6364V3.99629C0.0155806 1.78715 1.80644 0 4.01558 0H101.657C103.866 0 105.657 1.79086 105.657 4V27.5151C105.657 29.7243 103.866 31.5151 101.657 31.5151L9.71275 31.5152C2.2961 32.824 0.211792 36.848 0.0157795 39.2602V31.5151H0.0155806ZM0.0157795 40C-0.00446009 39.7774 -0.00604465 39.5288 0.0157795 39.2602V40Z" fill="url(#paint1_linear_505_672)"/>
<path d="M7.13892 16.9668V5.08801H9.59952V9.85649H15.0638V5.08801H17.5244V16.9668H15.0638V12.1135H9.59952V16.9668H7.13892Z" fill="white"/>
<path d="M20.336 12.5547C20.336 11.9098 20.4548 11.3102 20.6924 10.7559C20.9413 10.1902 21.275 9.70377 21.6936 9.29649C22.1235 8.87791 22.6269 8.54983 23.2039 8.31225C23.7809 8.07468 24.3974 7.95589 25.0536 7.95589C25.7098 7.95589 26.3263 8.07468 26.9033 8.31225C27.4803 8.54983 27.978 8.87791 28.3966 9.29649C28.8265 9.70377 29.1603 10.1902 29.3978 10.7559C29.6467 11.3102 29.7712 11.9098 29.7712 12.5547C29.7712 13.1995 29.6467 13.8048 29.3978 14.3704C29.1603 14.9248 28.8265 15.4056 28.3966 15.8129C27.978 16.2201 27.4803 16.5426 26.9033 16.7801C26.3263 17.0177 25.7098 17.1365 25.0536 17.1365C24.3974 17.1365 23.7809 17.0177 23.2039 16.7801C22.6269 16.5426 22.1235 16.2201 21.6936 15.8129C21.275 15.4056 20.9413 14.9248 20.6924 14.3704C20.4548 13.8048 20.336 13.1995 20.336 12.5547ZM25.0536 15.1171C25.7324 15.1171 26.3094 14.8682 26.7845 14.3704C27.2597 13.8727 27.4972 13.2674 27.4972 12.5547C27.4972 11.8306 27.2597 11.2197 26.7845 10.7219C26.3094 10.2242 25.7324 9.97528 25.0536 9.97528C24.3748 9.97528 23.7978 10.2242 23.3227 10.7219C22.8475 11.2197 22.61 11.8306 22.61 12.5547C22.61 13.2674 22.8475 13.8727 23.3227 14.3704C23.7978 14.8682 24.3748 15.1171 25.0536 15.1171Z" fill="white"/>
<path d="M36.1666 16.9668H33.9266L31.4999 8.12558H33.706L35.1654 13.8444L36.9302 8.12558H38.8818L40.6296 13.8444L42.089 8.12558H44.2612L41.8175 16.9668H39.5945L37.8805 11.3159L36.1666 16.9668Z" fill="white"/>
<path d="M51.1931 16.9668V8.12558H53.518V8.7874C53.8347 8.51589 54.1854 8.31225 54.5701 8.17649C54.9547 8.02942 55.3733 7.95589 55.8258 7.95589C56.3915 7.95589 56.9006 8.07468 57.3531 8.31225C57.8169 8.53851 58.1959 8.86094 58.4901 9.27952C58.8408 8.84963 59.265 8.52154 59.7628 8.29528C60.2606 8.06902 60.8093 7.95589 61.4089 7.95589C62.3931 7.95589 63.202 8.28397 63.8355 8.94013C64.4691 9.59629 64.7858 10.4391 64.7858 11.4686V16.9668H62.461V11.808C62.461 11.2537 62.3083 10.8068 62.0028 10.4674C61.7087 10.128 61.307 9.95831 60.798 9.95831C60.4472 9.95831 60.1248 10.0375 59.8307 10.1959C59.5479 10.343 59.3046 10.5579 59.101 10.8407C59.1123 10.9426 59.1236 11.0444 59.1349 11.1462C59.1462 11.248 59.1519 11.3555 59.1519 11.4686V16.9668H56.827V11.808C56.827 11.2537 56.6743 10.8068 56.3689 10.4674C56.0747 10.128 55.6731 9.95831 55.164 9.95831C54.8133 9.95831 54.5022 10.0262 54.2307 10.1619C53.9592 10.2977 53.7216 10.4957 53.518 10.7559V16.9668H51.1931Z" fill="white"/>
<path d="M69.9581 8.12558V13.2674C69.9581 13.8331 70.1222 14.2856 70.4502 14.625C70.7896 14.9644 71.2365 15.1341 71.7908 15.1341C72.1868 15.1341 72.5375 15.0605 72.843 14.9135C73.1597 14.7551 73.4199 14.5345 73.6236 14.2516V8.12558H75.9484V16.9668H73.6236V16.2541C73.2842 16.5369 72.9052 16.7575 72.4866 16.9159C72.068 17.063 71.6155 17.1365 71.129 17.1365C70.1108 17.1365 69.2737 16.8084 68.6175 16.1523C67.9614 15.4848 67.6333 14.6363 67.6333 13.6068V8.12558H69.9581Z" fill="white"/>
<path d="M83.2997 15.1001C83.6957 15.1001 84.0634 15.0209 84.4028 14.8626C84.7535 14.7042 85.0872 14.4553 85.404 14.1159L86.7955 15.5583C86.343 16.0561 85.7999 16.4464 85.1664 16.7292C84.5329 17.0007 83.8767 17.1365 83.1979 17.1365C82.5531 17.1365 81.9422 17.0177 81.3652 16.7801C80.7995 16.5426 80.3074 16.2201 79.8888 15.8129C79.4816 15.4056 79.1591 14.9248 78.9216 14.3704C78.684 13.8048 78.5652 13.1995 78.5652 12.5547C78.5652 11.9098 78.684 11.3102 78.9216 10.7559C79.1591 10.1902 79.4816 9.70377 79.8888 9.29649C80.3074 8.87791 80.7995 8.54983 81.3652 8.31225C81.9422 8.07468 82.5531 7.95589 83.1979 7.95589C83.8993 7.95589 84.5724 8.0973 85.2173 8.38013C85.8622 8.65165 86.4108 9.03629 86.8634 9.53407L85.4379 11.0444C85.1211 10.6937 84.7818 10.4278 84.4197 10.2468C84.0577 10.0658 83.6674 9.97528 83.2488 9.97528C82.5814 9.97528 82.0157 10.2242 81.5518 10.7219C81.0993 11.2197 80.8731 11.8306 80.8731 12.5547C80.8731 13.2787 81.105 13.884 81.5688 14.3704C82.044 14.8569 82.6209 15.1001 83.2997 15.1001Z" fill="white"/>
<path d="M89.2163 16.9668V5.08801L91.5412 4.57892V8.82134C91.8805 8.53851 92.2539 8.32357 92.6611 8.17649C93.0797 8.02942 93.5323 7.95589 94.0187 7.95589C95.0369 7.95589 95.8741 8.28397 96.5302 8.94013C97.1864 9.59629 97.5145 10.4391 97.5145 11.4686V16.9668H95.1896V11.808C95.1896 11.2537 95.0199 10.8068 94.6805 10.4674C94.3525 10.128 93.9112 9.95831 93.3569 9.95831C92.9723 9.95831 92.6216 10.0375 92.3048 10.1959C91.9993 10.343 91.7448 10.5579 91.5412 10.8407V16.9668H89.2163Z" fill="white"/>
<path d="M29.5649 26.6668V21.5759H31.5213C31.8995 21.5759 32.2534 21.6414 32.5831 21.7723C32.9128 21.9032 33.1965 22.0826 33.434 22.3105C33.6765 22.5383 33.8655 22.8098 34.0013 23.125C34.1419 23.4402 34.2122 23.7771 34.2122 24.1359C34.2122 24.4899 34.1419 24.822 34.0013 25.1323C33.8655 25.4426 33.6765 25.7117 33.434 25.9395C33.1965 26.1626 32.9128 26.3395 32.5831 26.4705C32.2534 26.6014 31.8995 26.6668 31.5213 26.6668H29.5649ZM31.514 22.5141H30.6195V25.7286H31.514C31.7371 25.7286 31.9455 25.6874 32.1395 25.605C32.3383 25.5226 32.5104 25.4111 32.6559 25.2705C32.8013 25.125 32.9152 24.9553 32.9977 24.7614C33.0801 24.5674 33.1213 24.3589 33.1213 24.1359C33.1213 23.908 33.0801 23.6947 32.9977 23.4959C32.9152 23.2971 32.8013 23.125 32.6559 22.9795C32.5104 22.8341 32.3383 22.7202 32.1395 22.6377C31.9455 22.5553 31.7371 22.5141 31.514 22.5141Z" fill="#263238"/>
<path d="M41.3462 24.1214C41.3462 24.485 41.2759 24.8292 41.1353 25.1541C40.9947 25.4741 40.8032 25.7529 40.5608 25.9905C40.3232 26.2232 40.0395 26.4074 39.7098 26.5432C39.3801 26.6789 39.0262 26.7468 38.648 26.7468C38.2747 26.7468 37.9232 26.6789 37.5935 26.5432C37.2638 26.4074 36.9777 26.2232 36.7353 25.9905C36.4977 25.7529 36.3086 25.4741 36.168 25.1541C36.0274 24.8292 35.9571 24.485 35.9571 24.1214C35.9571 23.7577 36.0274 23.4159 36.168 23.0959C36.3086 22.7711 36.4977 22.4923 36.7353 22.2595C36.9777 22.022 37.2638 21.8353 37.5935 21.6995C37.9232 21.5638 38.2747 21.4959 38.648 21.4959C39.0262 21.4959 39.3801 21.5638 39.7098 21.6995C40.0395 21.8353 40.3232 22.022 40.5608 22.2595C40.8032 22.4923 40.9947 22.7711 41.1353 23.0959C41.2759 23.4159 41.3462 23.7577 41.3462 24.1214ZM40.2626 24.1214C40.2626 23.8838 40.2214 23.6656 40.1389 23.4668C40.0565 23.2632 39.9426 23.0886 39.7971 22.9432C39.6565 22.7929 39.4868 22.6765 39.288 22.5941C39.0892 22.5068 38.8759 22.4632 38.648 22.4632C38.4201 22.4632 38.2068 22.5068 38.008 22.5941C37.8141 22.6765 37.6444 22.7929 37.4989 22.9432C37.3583 23.0886 37.2468 23.2632 37.1644 23.4668C37.082 23.6656 37.0408 23.8838 37.0408 24.1214C37.0408 24.3541 37.082 24.5723 37.1644 24.7759C37.2468 24.9795 37.3583 25.1565 37.4989 25.3068C37.6444 25.4523 37.8141 25.5686 38.008 25.6559C38.2068 25.7383 38.4201 25.7795 38.648 25.7795C38.8759 25.7795 39.0892 25.7383 39.288 25.6559C39.4868 25.5686 39.6565 25.4523 39.7971 25.3068C39.9426 25.1565 40.0565 24.9795 40.1389 24.7759C40.2214 24.5723 40.2626 24.3541 40.2626 24.1214Z" fill="#263238"/>
<path d="M43.2818 26.6668V21.5759H47.1945V22.4923H44.3363V23.6559H46.22V24.5432H44.3363V25.7505H47.2236V26.6668H43.2818Z" fill="#263238"/>
<path d="M48.7451 25.8595L49.3487 25.1032C49.6444 25.3602 49.9281 25.5492 50.1996 25.6705C50.476 25.7868 50.7669 25.845 51.0723 25.845C51.3875 25.845 51.6396 25.7868 51.8287 25.6705C52.0178 25.5541 52.1123 25.3989 52.1123 25.205C52.1123 25.0305 52.0469 24.8947 51.916 24.7977C51.7899 24.7008 51.5766 24.628 51.276 24.5795L50.2651 24.405C49.8287 24.3323 49.4966 24.1795 49.2687 23.9468C49.0457 23.7141 48.9341 23.4135 48.9341 23.045C48.9341 22.5699 49.1135 22.1941 49.4723 21.9177C49.836 21.6414 50.3257 21.5032 50.9414 21.5032C51.3099 21.5032 51.6808 21.5662 52.0541 21.6923C52.4323 21.8183 52.762 21.9929 53.0432 22.2159L52.476 23.0014C52.2045 22.7929 51.9378 22.6402 51.676 22.5432C51.4141 22.4414 51.1451 22.3905 50.8687 22.3905C50.5875 22.3905 50.362 22.4438 50.1923 22.5505C50.0226 22.6523 49.9378 22.7905 49.9378 22.965C49.9378 23.1202 49.9935 23.2414 50.1051 23.3286C50.2166 23.4159 50.4032 23.4789 50.6651 23.5177L51.6251 23.6777C52.1293 23.7602 52.5075 23.9226 52.7596 24.165C53.0166 24.4026 53.1451 24.7177 53.1451 25.1105C53.1451 25.605 52.9487 26.0002 52.556 26.2959C52.1681 26.5917 51.6493 26.7395 50.9996 26.7395C50.5923 26.7395 50.1899 26.662 49.7923 26.5068C49.3996 26.3517 49.0505 26.1359 48.7451 25.8595Z" fill="#263238"/>
<path d="M57.6639 26.6668V21.5759H58.7184V26.6668H57.6639Z" fill="#263238"/>
<path d="M60.5303 22.5068V21.5759H65.0103V22.5068H63.3012V26.6668H62.2466V22.5068H60.5303Z" fill="#263238"/>
<path d="M72.0346 25.765C72.3013 25.765 72.551 25.7092 72.7837 25.5977C73.0165 25.4862 73.2225 25.3262 73.4019 25.1177L74.0928 25.8014C73.8504 26.0874 73.5401 26.3153 73.1619 26.485C72.7886 26.6547 72.4031 26.7395 72.0056 26.7395C71.6225 26.7395 71.2637 26.6717 70.9292 26.5359C70.5995 26.4002 70.3134 26.2159 70.071 25.9832C69.8286 25.7505 69.6371 25.4741 69.4965 25.1541C69.3607 24.8341 69.2928 24.4899 69.2928 24.1214C69.2928 23.7529 69.3631 23.4086 69.5037 23.0886C69.6443 22.7638 69.8359 22.485 70.0783 22.2523C70.3207 22.0195 70.6068 21.8353 70.9365 21.6995C71.271 21.5638 71.6274 21.4959 72.0056 21.4959C72.4128 21.4959 72.808 21.5832 73.191 21.7577C73.574 21.9274 73.8843 22.1577 74.1219 22.4486L73.4092 23.1541C73.2298 22.9311 73.0189 22.7614 72.7765 22.645C72.534 22.5238 72.2771 22.4632 72.0056 22.4632C71.7777 22.4632 71.5619 22.5068 71.3583 22.5941C71.1595 22.6765 70.9874 22.7929 70.8419 22.9432C70.6965 23.0886 70.5825 23.2632 70.5001 23.4668C70.4177 23.6656 70.3765 23.8838 70.3765 24.1214C70.3765 24.3541 70.4177 24.5723 70.5001 24.7759C70.5874 24.9747 70.7037 25.1468 70.8492 25.2923C70.9995 25.4377 71.174 25.5541 71.3728 25.6414C71.5765 25.7238 71.7971 25.765 72.0346 25.765Z" fill="#263238"/>
<path d="M80.9722 24.1214C80.9722 24.485 80.9019 24.8292 80.7612 25.1541C80.6206 25.4741 80.4291 25.7529 80.1867 25.9905C79.9491 26.2232 79.6655 26.4074 79.3358 26.5432C79.0061 26.6789 78.6522 26.7468 78.274 26.7468C77.9006 26.7468 77.5491 26.6789 77.2194 26.5432C76.8897 26.4074 76.6037 26.2232 76.3613 25.9905C76.1237 25.7529 75.9346 25.4741 75.794 25.1541C75.6534 24.8292 75.5831 24.485 75.5831 24.1214C75.5831 23.7577 75.6534 23.4159 75.794 23.0959C75.9346 22.7711 76.1237 22.4923 76.3613 22.2595C76.6037 22.022 76.8897 21.8353 77.2194 21.6995C77.5491 21.5638 77.9006 21.4959 78.274 21.4959C78.6522 21.4959 79.0061 21.5638 79.3358 21.6995C79.6655 21.8353 79.9491 22.022 80.1867 22.2595C80.4291 22.4923 80.6206 22.7711 80.7612 23.0959C80.9019 23.4159 80.9722 23.7577 80.9722 24.1214ZM79.8885 24.1214C79.8885 23.8838 79.8473 23.6656 79.7649 23.4668C79.6825 23.2632 79.5685 23.0886 79.4231 22.9432C79.2825 22.7929 79.1128 22.6765 78.914 22.5941C78.7152 22.5068 78.5019 22.4632 78.274 22.4632C78.0461 22.4632 77.8328 22.5068 77.634 22.5941C77.44 22.6765 77.2703 22.7929 77.1249 22.9432C76.9843 23.0886 76.8728 23.2632 76.7903 23.4668C76.7079 23.6656 76.6667 23.8838 76.6667 24.1214C76.6667 24.3541 76.7079 24.5723 76.7903 24.7759C76.8728 24.9795 76.9843 25.1565 77.1249 25.3068C77.2703 25.4523 77.44 25.5686 77.634 25.6559C77.8328 25.7383 78.0461 25.7795 78.274 25.7795C78.5019 25.7795 78.7152 25.7383 78.914 25.6559C79.1128 25.5686 79.2825 25.4523 79.4231 25.3068C79.5685 25.1565 79.6825 24.9795 79.7649 24.7759C79.8473 24.5723 79.8885 24.3541 79.8885 24.1214Z" fill="#263238"/>
<path d="M82.4714 25.8595L83.075 25.1032C83.3708 25.3602 83.6544 25.5492 83.9259 25.6705C84.2023 25.7868 84.4932 25.845 84.7987 25.845C85.1138 25.845 85.3659 25.7868 85.555 25.6705C85.7441 25.5541 85.8387 25.3989 85.8387 25.205C85.8387 25.0305 85.7732 24.8947 85.6423 24.7977C85.5162 24.7008 85.3029 24.628 85.0023 24.5795L83.9914 24.405C83.555 24.3323 83.2229 24.1795 82.995 23.9468C82.772 23.7141 82.6605 23.4135 82.6605 23.045C82.6605 22.5699 82.8399 22.1941 83.1987 21.9177C83.5623 21.6414 84.052 21.5032 84.6678 21.5032C85.0362 21.5032 85.4071 21.5662 85.7805 21.6923C86.1587 21.8183 86.4884 21.9929 86.7696 22.2159L86.2023 23.0014C85.9308 22.7929 85.6641 22.6402 85.4023 22.5432C85.1405 22.4414 84.8714 22.3905 84.595 22.3905C84.3138 22.3905 84.0884 22.4438 83.9187 22.5505C83.749 22.6523 83.6641 22.7905 83.6641 22.965C83.6641 23.1202 83.7199 23.2414 83.8314 23.3286C83.9429 23.4159 84.1296 23.4789 84.3914 23.5177L85.3514 23.6777C85.8556 23.7602 86.2338 23.9226 86.4859 24.165C86.7429 24.4026 86.8714 24.7177 86.8714 25.1105C86.8714 25.605 86.675 26.0002 86.2823 26.2959C85.8944 26.5917 85.3756 26.7395 84.7259 26.7395C84.3187 26.7395 83.9162 26.662 83.5187 26.5068C83.1259 26.3517 82.7768 26.1359 82.4714 25.8595Z" fill="#263238"/>
<path d="M88.2457 22.5068V21.5759H92.7257V22.5068H91.0166V26.6668H89.9621V22.5068H88.2457Z" fill="#263238"/>
<path d="M96.9194 24.165L96.7231 24.3032C96.5728 24.4099 96.4661 24.5262 96.4031 24.6523C96.3449 24.7735 96.3182 24.9311 96.3231 25.125H95.4867C95.4673 24.7905 95.4988 24.5262 95.5813 24.3323C95.6637 24.1383 95.8188 23.9565 96.0467 23.7868L96.4176 23.5177C96.5679 23.4111 96.677 23.3117 96.7449 23.2195C96.8128 23.1226 96.8467 23.0208 96.8467 22.9141C96.8467 22.7492 96.7716 22.6135 96.6213 22.5068C96.4758 22.3953 96.2916 22.3395 96.0685 22.3395C95.8455 22.3395 95.6419 22.3953 95.4576 22.5068C95.2782 22.6135 95.14 22.7638 95.0431 22.9577L94.2431 22.6232C94.4031 22.2789 94.6479 22.0074 94.9776 21.8086C95.3122 21.605 95.6879 21.5032 96.1049 21.5032C96.3473 21.5032 96.5728 21.5371 96.7812 21.605C96.9946 21.6729 97.1764 21.7674 97.3267 21.8886C97.4819 22.0099 97.6031 22.1529 97.6903 22.3177C97.7776 22.4826 97.8213 22.662 97.8213 22.8559C97.8213 23.1177 97.7534 23.3432 97.6176 23.5323C97.4867 23.7214 97.254 23.9323 96.9194 24.165ZM95.9085 25.5541C96.0734 25.5541 96.2116 25.6123 96.3231 25.7286C96.4394 25.845 96.4976 25.9856 96.4976 26.1505C96.4976 26.3105 96.4394 26.4486 96.3231 26.565C96.2116 26.6814 96.0734 26.7395 95.9085 26.7395C95.7485 26.7395 95.6103 26.6814 95.494 26.565C95.3776 26.4486 95.3194 26.3105 95.3194 26.1505C95.3194 25.9856 95.3776 25.845 95.494 25.7286C95.6103 25.6123 95.7485 25.5541 95.9085 25.5541Z" fill="#263238"/>
<defs>
<linearGradient id="paint0_linear_505_672" x1="27.2885" y1="7.87882" x2="10.0157" y2="24.5454" gradientUnits="userSpaceOnUse">
<stop stop-color="#FB6F5B"/>
<stop offset="1" stop-color="#F84A69"/>
</linearGradient>
<linearGradient id="paint1_linear_505_672" x1="0.0158264" y1="16.3636" x2="102.055" y2="16.9581" gradientUnits="userSpaceOnUse">
<stop stop-color="#FB6F5B"/>
<stop offset="1" stop-color="#F84B69"/>
</linearGradient>
</defs>
</svg>
