<svg width="209" height="172" viewBox="0 0 209 172" fill="none" xmlns="http://www.w3.org/2000/svg">
<path fill-rule="evenodd" clip-rule="evenodd" d="M194.004 116.281C194.933 116.402 195.841 116.717 196.647 117.268C198.413 118.483 199.4 120.481 199.271 122.619C199.271 122.624 199.271 122.629 199.271 122.634C199.271 122.637 199.27 122.64 199.27 122.643C199.27 122.648 199.269 122.653 199.269 122.658L199.268 122.667C199.266 122.679 199.265 122.69 199.265 122.702L191.177 238.714C190.464 252.688 178.877 263.697 164.804 263.697H34.6862C20.6134 263.697 9.02646 252.688 8.30704 238.63L0.4176 126.516C0.335209 124.858 0.775298 123.3 1.5771 121.96C-0.0827742 115.349 0.208609 109.579 2.69842 104.875C6.83204 97.0759 15.6961 93.6295 23.047 91.5095C20.1091 88.1737 16.0719 85.3 11.7273 85.3C11.6664 85.3 11.6066 85.3024 11.5463 85.3047L11.5461 85.3048C11.4592 85.3082 11.3716 85.3116 11.2791 85.3081C8.78531 85.3081 6.72554 83.3246 6.64716 80.8167C6.56879 78.2586 8.58034 76.1205 11.1405 76.0381C18.4592 75.7688 24.9761 79.8984 29.6061 84.9504C28.6174 82.6896 28.095 80.242 28.095 77.702C28.095 73.4699 29.5418 69.4367 32.1502 66.2155C31.1173 63.5408 30.5787 60.7053 30.5787 57.8397C30.5787 47.0344 37.9035 37.9493 47.9572 35.353C48.0255 25.9524 54.4882 17.866 63.3 15.4666C65.0664 7.94291 71.8386 2.32023 79.8988 2.32023C82.7825 2.32023 85.5918 3.06174 88.0957 4.45636C91.0336 2.7362 94.474 2.0188 97.9444 2.43075C104.106 3.16222 109.431 7.70578 111.197 13.7404C111.34 14.2167 111.457 14.6909 111.549 15.1732C120.124 16.9195 126.948 23.6595 128.737 32.2623C136.329 35.8694 141.668 42.7802 143.426 50.8586L143.891 49.8759L143.892 49.873C144.185 49.2542 144.48 48.6293 144.779 47.995C152.732 31.1048 162.633 10.0931 176.479 2.94921C185.313 -1.59636 192.119 0.553843 196.271 3.16222C204.926 8.58998 209.219 20.3176 208.991 29.1013C208.268 57.0299 203.214 86.351 194.004 116.281ZM153.163 51.9437C151.044 56.4431 149.043 60.6912 147.206 64.1155C142.299 73.285 137.84 82.8464 133.795 92.7072C133.387 93.7073 132.995 94.7208 132.603 95.7338L132.602 95.7361L132.598 95.7457L132.593 95.7594C132.418 96.2115 132.243 96.6634 132.066 97.1141C130.776 100.402 129.53 103.709 128.339 107.061L128.305 107.157L128.303 107.162C127.75 108.718 127.196 110.278 126.665 111.85C125.238 116.072 123.876 120.328 122.605 124.643C122.555 124.811 122.501 124.978 122.448 125.146L122.447 125.147L122.447 125.148L122.447 125.149C122.374 125.378 122.301 125.607 122.234 125.838C124.293 125.607 126.327 125.069 128.168 123.966L131.468 121.982C135.316 119.669 139.636 118.542 143.947 118.57C143.976 118.57 144.003 118.568 144.029 118.566L144.029 118.566L144.03 118.566C144.055 118.564 144.079 118.562 144.104 118.562C148.364 118.562 152.624 119.701 156.426 121.982L159.73 123.966C162.01 125.334 164.565 126.009 167.123 126.037C169.683 126.009 172.241 125.334 174.522 123.966C174.685 123.865 174.851 123.781 175.022 123.702L182.922 120.194C183.872 117.509 184.539 115.554 184.841 114.585C194.008 85.1031 199.014 56.2642 199.723 28.8602C199.878 22.8979 196.715 14.3835 191.344 11.0095C188.229 9.06624 184.756 9.10844 180.725 11.1863C169.679 16.8874 160.13 37.1475 153.163 51.9437ZM88.4542 74.6774L88.1178 75.1097L88.1113 75.118C84.1123 80.2196 79.9782 85.4937 81.8862 94.1982L84.6996 107.079C94.0721 108.438 99.7591 106.995 107.399 101.567C113.462 97.2527 118.371 94.8413 123.451 93.5532C123.602 93.1745 123.758 92.8006 123.916 92.4259C124.045 92.1187 124.174 91.8109 124.3 91.4994C126.088 87.0363 127.937 82.6093 129.902 78.2707C129.341 77.2096 128.656 76.3234 127.943 75.4714C127.539 74.9891 127.103 74.549 126.663 74.119C126.255 73.7251 125.843 73.3393 125.411 72.9876C124.92 72.5877 124.428 72.1938 123.914 71.8381C123.47 71.5267 123.015 71.2353 122.555 70.9519C122.473 70.9005 122.392 70.8489 122.31 70.7973L122.307 70.7951C121.854 70.5089 121.401 70.2229 120.934 69.9612C120.72 69.8414 120.503 69.7256 120.288 69.6102L120.286 69.6092L120.111 69.5152L120.025 69.4689C119.396 69.1253 118.769 68.7836 118.144 68.4541L117.724 68.2307L117.724 68.2307C117.112 67.9061 116.516 67.59 115.942 67.2725C113.788 66.0386 112.238 64.2722 111.372 62.1502C111.149 61.6036 111.01 61.0148 110.88 60.422L91.532 64.652C92.0605 67.0072 91.7933 69.4187 90.6518 71.5628C90.3826 72.0692 90.063 72.5756 89.6973 73.0619C89.6961 73.0631 89.6949 73.0645 89.6938 73.0661C89.6928 73.0675 89.6919 73.0692 89.6911 73.0709C89.6906 73.0721 89.6902 73.0733 89.6899 73.0745C89.6895 73.0762 89.6893 73.0781 89.6893 73.08C89.2922 73.601 88.8788 74.132 88.4561 74.675L88.4549 74.6765L88.4542 74.6774ZM111.465 46.9239C111.344 46.9239 111.223 46.938 111.103 46.9601L99.0738 49.5926L85.4692 52.5687C84.4544 52.7917 83.7832 53.8347 84.0043 54.8495C84.2273 55.8603 85.2663 56.5375 86.2851 56.3145L111.891 50.7099C112.554 50.5672 112.92 50.1271 113.082 49.8759C113.249 49.6227 113.5 49.0982 113.352 48.4311C113.161 47.5509 112.341 46.9239 111.465 46.9239ZM95.7511 118.676C95.875 118.669 95.9988 118.663 96.1218 118.654C96.2659 118.646 96.4101 118.635 96.5545 118.624C96.8976 118.599 97.2417 118.573 97.5867 118.58C97.6149 118.58 97.6435 118.577 97.6721 118.575C97.7008 118.572 97.7294 118.57 97.7576 118.57C102.018 118.57 106.278 119.711 110.078 121.992L113.161 123.837C114.37 119.641 115.669 115.483 117.031 111.358C117.202 110.837 117.384 110.324 117.566 109.81C117.69 109.458 117.815 109.107 117.935 108.753C118.347 107.538 118.769 106.334 119.195 105.124C117.212 106.175 115.126 107.445 112.771 109.123C105.291 114.444 98.7824 116.852 90.6981 116.852C89.4811 116.852 88.1837 116.744 86.8787 116.636H86.8786H86.8786H86.8785H86.8784L86.7855 116.629L87.6717 120.684C90.0389 119.619 92.5328 118.98 95.0608 118.725C95.2892 118.7 95.5203 118.688 95.7505 118.676L95.7511 118.676ZM43.7151 68.219L40.6787 70.7208C38.5807 72.445 37.375 74.9891 37.369 77.702C37.369 78.8574 37.592 79.9788 38.014 81.0217C40.0617 79.6834 42.2501 78.5741 44.5571 77.7904C44.6367 77.763 44.715 77.7406 44.7935 77.7181L44.7936 77.7181C44.8478 77.7026 44.902 77.687 44.957 77.6698C45.8331 77.3925 46.7173 77.1594 47.6317 76.9926C47.8634 76.9497 48.0952 76.9229 48.327 76.8961C48.4429 76.8827 48.5588 76.8693 48.6746 76.8539C49.3739 76.7675 50.0692 76.6831 50.7887 76.6751C50.8464 76.6751 50.9047 76.6679 50.9625 76.6608C51.0193 76.6539 51.0755 76.647 51.1303 76.647C51.3467 76.647 51.5611 76.6735 51.7755 76.7001C51.9293 76.7191 52.0831 76.7382 52.2375 76.7474C52.4431 76.7623 52.6459 76.7665 52.8486 76.7707C53.1673 76.7773 53.4859 76.7839 53.815 76.8318C53.8995 76.8447 53.9823 76.8677 54.0649 76.8908C54.1375 76.911 54.2099 76.9312 54.2832 76.9444C54.3217 76.9496 54.3601 76.951 54.3986 76.9525C54.4485 76.9544 54.4985 76.9562 54.5485 76.9665C55.3181 77.1091 56.0818 77.3041 56.8414 77.5452C56.9708 77.5869 57.1008 77.6405 57.2308 77.694L57.231 77.6941L57.2312 77.6942C57.3332 77.7363 57.4351 77.7783 57.5367 77.8145C58.236 78.0657 58.9313 78.3531 59.6226 78.6907C59.9521 78.8494 60.2717 79.0202 60.5952 79.1971C61.2644 79.5568 61.9215 79.9647 62.5806 80.4068C62.6842 80.4773 62.7889 80.5446 62.8938 80.6119C63.0371 80.704 63.1806 80.7962 63.3221 80.8971C64.1983 81.5281 65.0704 82.2375 65.9365 83.0112C66.0767 83.1376 66.2152 83.2725 66.3528 83.4064L66.353 83.4066C66.4383 83.4896 66.5231 83.5722 66.6077 83.6522C67.295 84.3013 67.9762 84.9926 68.6575 85.7281C68.9167 86.0074 69.1759 86.2887 69.4311 86.5801C70.241 87.5085 71.0488 88.4851 71.8546 89.5482C71.8879 89.5936 71.9229 89.6366 71.9585 89.6801L71.9586 89.6803L71.9831 89.7104L72.0065 89.7394C72.0195 89.7557 72.0326 89.7723 72.0455 89.7893L72.0623 89.8102C72.0685 89.818 72.0747 89.8258 72.0812 89.8336L72.0871 89.8408C72.0919 89.8465 72.0968 89.8521 72.1018 89.8577C72.1018 89.4648 72.1344 89.095 72.1672 88.7236V88.7235V88.7234V88.7234V88.7233C72.1818 88.5572 72.1965 88.3908 72.2083 88.2219C72.2179 88.0777 72.2254 87.933 72.2329 87.7888L72.233 87.7875C72.2473 87.51 72.2616 87.2341 72.2907 86.9659C72.4072 85.9451 72.5881 84.9684 72.8112 84.022C72.8305 83.9391 72.8448 83.8547 72.859 83.7704C72.8758 83.6707 72.8926 83.5712 72.9177 83.4754C73.205 82.3621 73.5668 81.3051 73.9747 80.2963C74.0615 80.0719 74.1599 79.8621 74.2584 79.6519L74.2585 79.6517L74.2587 79.6513L74.2589 79.6509C74.297 79.5696 74.3351 79.4883 74.3726 79.4061C74.6841 78.7087 74.9975 78.0275 75.3472 77.3784C75.5283 77.0398 75.7152 76.7167 75.904 76.3901L75.9041 76.39L75.9041 76.39L75.9042 76.3899L75.9042 76.3898L75.9159 76.3696C76.2495 75.7929 76.5891 75.2343 76.9408 74.6917L77.0459 74.5296C77.2143 74.2695 77.3806 74.013 77.5537 73.7633C77.9335 73.2066 78.3173 72.6741 78.7031 72.1496C78.7269 72.118 78.7504 72.0862 78.7739 72.0545C78.825 71.9852 78.8755 71.9158 78.9259 71.8465L78.9278 71.8438L78.9306 71.84L78.9313 71.8391L78.9314 71.839L78.9314 71.8389L78.9315 71.8387C79.0321 71.7004 79.1322 71.5626 79.2357 71.4282C79.7742 70.7228 80.3027 70.0416 80.8131 69.3925C80.9115 69.2668 81.0095 69.1418 81.107 69.0174L81.1073 69.017C81.5098 68.5038 81.9033 68.0021 82.2721 67.5056V67.5016C82.5413 67.0554 82.6117 66.8806 82.4911 66.537C82.2821 65.9381 81.6793 65.3493 80.9558 65.0399C78.04 63.7879 75.8938 61.1876 75.2226 58.1009L74.9493 56.845C74.9493 56.8393 74.9474 56.8356 74.9457 56.8323L74.9443 56.8292C74.9437 56.8278 74.9433 56.8264 74.9433 56.8249V56.8108L74.666 55.5508C74.1053 52.9786 74.5776 50.3321 76.0063 48.1115C77.4331 45.883 79.6356 44.3497 82.2078 43.787L95.4828 40.8893L109.087 37.9131C109.09 37.9123 109.093 37.9118 109.096 37.9115C109.1 37.9111 109.104 37.9111 109.107 37.9111L109.111 37.9111C109.114 37.9111 109.117 37.911 109.12 37.9106C109.122 37.9103 109.125 37.9099 109.128 37.9091L110.371 37.6358C112.944 37.0711 115.586 37.5474 117.807 38.9702C120.031 40.3989 121.571 42.5994 122.131 45.1776L122.692 47.7317C123.345 50.7501 122.533 53.9472 120.514 56.2924C120.007 56.8812 119.758 57.683 119.868 58.3501C119.951 58.8384 120.192 59.0314 120.393 59.1439C121.006 59.4841 121.614 59.8063 122.237 60.1364L122.237 60.1365L122.533 60.2933C125.342 61.7724 128.684 63.5468 131.785 66.1793C133.7 63.4121 134.757 60.2572 134.827 56.9796C134.99 49.3072 130.224 42.4527 122.979 39.9066L120.102 38.8978L119.893 35.8514C119.432 29.2058 113.862 23.9991 107.2 23.9991H101.982L102.524 18.8225C102.621 18.0006 102.55 17.1948 102.305 16.3609C101.582 13.871 99.3391 11.9338 96.8553 11.6405C94.8337 11.4094 92.8724 12.0685 91.4456 13.4772L88.3308 16.5538L85.0814 13.6199C84.0565 12.6935 82.3223 11.5902 79.9028 11.5902C75.6989 11.5902 72.2646 14.9421 72.1299 19.1079V23.7198L67.8456 24.0453C61.8954 24.4995 57.2312 29.5273 57.2312 35.4977C57.2312 36.3557 57.3438 37.26 57.5648 38.1764L58.877 43.6564L53.2503 43.8935C45.7407 44.207 39.8588 50.3301 39.8588 57.8397C39.8588 60.2773 40.5119 62.6887 41.7457 64.8208L43.7151 68.219ZM25.8845 100.331C17.6192 102.695 12.8586 105.514 10.8973 109.207C9.64539 111.571 9.38616 114.537 10.1136 118.204C11.0219 118.369 11.9061 118.705 12.728 119.191C12.728 119.193 12.7289 119.194 12.7298 119.194C12.7309 119.195 12.732 119.195 12.732 119.195L18.9676 122.941C21.7709 124.627 24.9078 125.471 28.0568 125.499C31.1997 125.471 34.3406 124.623 37.1459 122.941L38.7535 121.976C42.6018 119.663 46.9223 118.536 51.2328 118.564C51.2617 118.564 51.289 118.562 51.3156 118.56C51.3407 118.558 51.3651 118.556 51.3895 118.556C55.6497 118.556 59.9099 119.695 63.71 121.976L67.0157 123.959C68.565 124.888 70.2651 125.453 72.0315 125.754C72.2766 125.792 72.5178 125.828 72.7649 125.852C74.248 118.106 73.1166 109.211 69.7044 103.191C68.9589 101.875 68.2174 100.637 67.4799 99.4733C67.354 99.2731 67.2262 99.0872 67.0983 98.9012L67.0982 98.9011L67.0982 98.9009L67.0981 98.9008C67.0014 98.7602 66.9047 98.6195 66.8087 98.4725L66.7094 98.3208L66.7092 98.3205C66.2322 97.5915 65.7569 96.8653 65.2834 96.2058C65.1046 95.9555 64.9267 95.7295 64.748 95.5026L64.7477 95.5024C64.6453 95.3723 64.5426 95.242 64.4394 95.1066C64.3536 94.9935 64.2677 94.8798 64.1818 94.7661L64.1813 94.7655C63.8234 94.2917 63.466 93.8185 63.1111 93.3924C62.8977 93.1395 62.6869 92.9107 62.477 92.683C62.3667 92.5633 62.2566 92.4439 62.1466 92.3213C62.0634 92.228 61.9801 92.1339 61.897 92.0398L61.8961 92.0388C61.5859 91.6879 61.2762 91.3376 60.969 91.0272C60.7241 90.7795 60.4782 90.562 60.2327 90.3449L60.2326 90.3448L60.2326 90.3448L60.2325 90.3447L60.2325 90.3447C60.1255 90.2501 60.0187 90.1555 59.9119 90.0586C59.8173 89.9726 59.7225 89.8848 59.6276 89.797C59.37 89.5586 59.1119 89.3197 58.8549 89.1141C58.5731 88.886 58.2935 88.6943 58.0144 88.5031C57.9174 88.4366 57.8205 88.3702 57.7236 88.3023C57.6144 88.2272 57.5055 88.1485 57.3967 88.0699L57.3967 88.0698C57.1909 87.9212 56.9854 87.7727 56.7791 87.6492C56.458 87.4543 56.1394 87.3025 55.8203 87.1506C55.7381 87.1114 55.6557 87.0722 55.5734 87.0322C55.4606 86.981 55.3487 86.9244 55.2374 86.8681C55.0692 86.7829 54.9023 86.6985 54.7354 86.6344C54.3033 86.4615 53.8773 86.355 53.4473 86.2485C53.3664 86.2276 53.2858 86.2045 53.2056 86.1815L53.205 86.1814L53.2048 86.1813C53.0538 86.1381 52.9041 86.0952 52.756 86.0677C51.8879 85.9149 50.9936 85.8868 50.0712 85.9893C50.0246 85.9922 49.9779 85.9983 49.9304 86.0045H49.9303L49.9299 86.0046C49.9122 86.0069 49.8943 86.0092 49.8763 86.0114C46.9605 86.3872 43.7392 88.039 40.0035 91.0754C38.8078 92.048 37.5699 93.1191 36.2497 94.3831C33.3378 97.1643 29.7508 99.2281 25.8845 100.331ZM164.822 254.421C173.953 254.421 181.475 247.273 181.943 238.151L189.664 127.34L188.954 127.655C188.878 127.701 188.81 127.758 188.742 127.815C188.647 127.893 188.553 127.971 188.44 128.021L179.345 132.064C175.609 134.242 171.443 135.327 167.279 135.327C167.209 135.327 167.137 135.313 167.066 135.313C162.774 135.331 158.478 134.204 154.65 131.911L151.344 129.926C149.059 128.555 146.503 127.878 143.945 127.85C141.387 127.878 138.832 128.555 136.552 129.926L133.246 131.911C131.369 133.037 129.354 133.784 127.296 134.353C127.003 134.439 126.706 134.508 126.41 134.577C126.34 134.593 126.27 134.61 126.201 134.626C126.062 134.658 125.924 134.69 125.786 134.722L125.786 134.722C125.171 134.866 124.558 135.01 123.93 135.09C122.585 135.281 121.231 135.323 119.879 135.281C119.829 135.281 119.777 135.277 119.726 135.273L119.725 135.273C119.696 135.271 119.666 135.269 119.637 135.267C115.713 135.104 111.808 134.015 108.3 131.915L104.994 129.932C102.709 128.559 100.155 127.882 97.5968 127.854C95.0366 127.882 92.4825 128.559 90.2037 129.932L86.898 131.915C86.7453 132.006 86.5792 132.043 86.4119 132.08L86.4115 132.08C86.3038 132.104 86.1956 132.128 86.0902 132.166C83.2266 133.798 80.1199 134.795 76.9548 135.151C76.9258 135.153 76.8986 135.162 76.8718 135.171C76.8587 135.175 76.8458 135.179 76.8328 135.183C76.8226 135.185 76.8124 135.188 76.8021 135.189C76.5213 135.213 76.2423 135.221 75.9645 135.229C75.8248 135.233 75.6854 135.237 75.5462 135.243C70.8639 135.498 66.1274 134.423 61.9456 131.915L58.6399 129.932C56.3551 128.559 53.8009 127.882 51.2428 127.854C48.6847 127.882 46.1285 128.559 43.8497 129.932L42.2401 130.896C37.8693 133.521 32.9661 134.809 28.0668 134.781C23.1716 134.809 18.2623 133.519 13.8915 130.896L9.85841 128.475L17.573 238.063C18.0453 247.273 25.5629 254.421 34.7003 254.421H164.822ZM163.07 53.0149C163.564 53.1817 164.066 53.2601 164.563 53.2601C166.496 53.2601 168.298 52.0443 168.951 50.1111C170.017 46.9682 173.453 45.2762 176.59 46.3433C180.46 47.6555 184.61 47.3862 188.275 45.5836C191.939 43.7751 194.678 40.6522 195.994 36.7798C196.818 34.3604 195.52 31.7238 193.096 30.8999C190.663 30.07 188.038 31.3762 187.214 33.7997C186.694 35.3249 185.615 36.5588 184.172 37.2682C182.731 37.9755 181.099 38.084 179.57 37.5595C171.588 34.8668 162.879 39.1491 160.172 47.127C159.352 49.5565 160.644 52.189 163.07 53.0149ZM153.599 85.5579C153.108 85.5579 152.604 85.4795 152.112 85.3127C149.686 84.4888 148.384 81.8543 149.214 79.4308C150.711 75.0218 153.834 71.4569 158.006 69.3992C162.177 67.3374 166.902 67.0299 171.315 68.529C175.583 69.9759 180.215 67.689 181.66 63.4248C182.48 61.0013 185.114 59.6891 187.538 60.523C189.957 61.3489 191.259 63.9855 190.436 66.4049C187.349 75.5102 177.428 80.3913 168.335 77.3127C166.271 76.6134 164.06 76.7521 162.105 77.7146C160.148 78.6792 158.689 80.3471 157.987 82.4109C157.334 84.3441 155.532 85.5579 153.599 85.5579ZM142.633 117.857C142.142 117.857 141.636 117.778 141.146 117.612C138.72 116.786 137.422 114.149 138.242 111.73C141.328 102.635 151.264 97.7634 160.343 100.828C164.603 102.273 169.243 99.9879 170.69 95.7277C171.514 93.3042 174.138 92.006 176.572 92.8259C178.995 93.6519 180.293 96.2884 179.468 98.7079C176.385 107.807 166.462 112.688 157.367 109.61C153.112 108.169 148.472 110.454 147.021 114.71C146.368 116.643 144.566 117.857 142.633 117.857ZM28.2236 199.636H60.6717C63.2298 199.636 65.3077 197.565 65.3077 195C65.3077 192.438 63.2298 190.364 60.6717 190.364H28.2236C25.6655 190.364 23.5896 192.438 23.5896 195C23.5896 197.565 25.6655 199.636 28.2236 199.636ZM69.9417 218.178H28.2236C25.6655 218.178 23.5896 216.106 23.5896 213.542C23.5896 210.978 25.6655 208.906 28.2236 208.906H69.9417C72.5018 208.906 74.5777 210.978 74.5777 213.542C74.5777 216.106 72.5018 218.178 69.9417 218.178ZM79.2117 227.449H28.2236C25.6655 227.449 23.5896 229.52 23.5896 232.085C23.5896 234.647 25.6655 236.719 28.2236 236.719H79.2117C81.7699 236.719 83.8477 234.647 83.8477 232.085C83.8477 229.52 81.7699 227.449 79.2117 227.449ZM97.7536 227.449H107.024C109.584 227.449 111.66 229.52 111.66 232.085C111.66 234.647 109.582 236.719 107.024 236.719H97.7536C95.1935 236.719 93.1176 234.647 93.1176 232.085C93.1176 229.52 95.1935 227.449 97.7536 227.449Z" fill="white"/>
</svg>
