<svg width="280" height="280" viewBox="0 0 280 280" fill="none" xmlns="http://www.w3.org/2000/svg">
<g opacity="0.2">
<mask id="mask0_102_8" style="mask-type:alpha" maskUnits="userSpaceOnUse" x="0" y="0" width="280" height="280">
<path d="M0 6C0 2.6863 2.68629 0 6 0H274C277.314 0 280 2.68629 280 6V274C280 277.314 277.314 280 274 280H6C2.6863 280 0 277.314 0 274V6Z" fill="#FFF2F2"/>
</mask>
<g mask="url(#mask0_102_8)">
<path fill-rule="evenodd" clip-rule="evenodd" d="M243.315 172.312L253.884 246.288C253.96 246.833 253.999 247.382 254 247.931V270.565C254 276.967 248.81 282.158 242.407 282.158H238.156C236.612 289.762 230.669 295.705 223.065 297.248C212.607 299.372 202.408 292.616 200.285 282.158H126.475C126.344 282.14 126.215 282.114 126.088 282.081C124.56 289.688 118.629 295.643 111.028 297.202C100.575 299.347 90.3617 292.612 88.2169 282.158H79.7153C78.1714 289.762 72.2285 295.705 64.6247 297.248C54.1667 299.372 43.9676 292.616 41.8441 282.158H37.5932C31.1904 282.158 26 276.967 26 270.565V173.955C26 167.552 31.1904 162.361 37.5932 162.361H231.841C237.6 162.386 242.476 166.615 243.315 172.312ZM230.578 239.649H245.112L237.383 185.548H227.196L230.578 239.649ZM49.1864 278.293C49.1864 284.696 54.3768 289.887 60.7797 289.887C67.1825 289.887 72.3729 284.696 72.3729 278.293C72.3729 271.891 67.1825 266.7 60.7797 266.7C54.3768 266.7 49.1864 271.891 49.1864 278.293ZM95.5593 278.293C95.5593 284.696 100.75 289.887 107.153 289.887C113.555 289.887 118.746 284.696 118.746 278.293C118.746 271.891 113.555 266.7 107.153 266.7C100.75 266.7 95.5593 271.891 95.5593 278.293ZM207.627 278.293C207.627 284.696 212.818 289.887 219.22 289.887C225.623 289.887 230.814 284.696 230.814 278.293C230.814 271.891 225.623 266.7 219.22 266.7C212.818 266.7 207.627 271.891 207.627 278.293ZM242.407 274.429C244.541 274.429 246.271 272.699 246.271 270.565V247.915C246.272 247.736 246.259 247.556 246.233 247.378H226.949C224.906 247.382 223.213 245.796 223.085 243.757L219.22 181.927C219.215 181.843 219.213 181.759 219.213 181.676C219.217 179.542 220.951 177.815 223.085 177.819H236.293L235.663 173.406C235.39 171.504 233.763 170.092 231.841 170.09H37.5932C35.4591 170.09 33.7288 171.82 33.7288 173.955V270.565C33.7288 272.699 35.4591 274.429 37.5932 274.429H41.8441C43.3879 266.825 49.3309 260.882 56.9346 259.339C67.3926 257.215 77.5918 263.971 79.7153 274.429H88.2169C89.7762 266.828 95.7313 260.897 103.338 259.369C113.801 257.267 123.986 264.044 126.088 274.506C126.215 274.473 126.344 274.447 126.475 274.429H200.285C201.829 266.825 207.772 260.882 215.375 259.339C225.833 257.215 236.032 263.971 238.156 274.429H242.407ZM45.3221 177.819H207.627C209.761 177.819 211.492 179.549 211.492 181.683V208.734C211.492 210.868 209.761 212.598 207.627 212.598H45.3221C43.1879 212.598 41.4576 210.868 41.4576 208.734V181.683C41.4576 179.549 43.1879 177.819 45.3221 177.819ZM49.1865 204.87H68.5085V185.547H49.1865V204.87ZM76.2373 204.87H95.5593V185.547H76.2373V204.87ZM103.288 204.87H122.61V185.547H103.288V204.87ZM130.339 204.87H149.661V185.547H130.339V204.87ZM157.39 204.87H176.712V185.547H157.39V204.87ZM184.441 204.87H203.763V185.547H184.441V204.87ZM153.525 216.463H45.3221C43.1879 216.463 41.4576 218.194 41.4576 220.328V247.378C41.4576 249.513 43.1879 251.243 45.3221 251.243H153.525C155.66 251.243 157.39 249.513 157.39 247.378V220.328C157.39 218.194 155.66 216.463 153.525 216.463ZM68.5085 243.514H49.1865V224.192H68.5085V243.514ZM95.5593 243.514H76.2373V224.192H95.5593V243.514ZM122.61 243.514H103.288V224.192H122.61V243.514ZM149.661 243.514H130.339V224.192H149.661V243.514ZM168.983 216.463H196.034C198.168 216.463 199.898 218.194 199.898 220.328V266.701C199.898 268.835 198.168 270.565 196.034 270.565H168.983C166.849 270.565 165.119 268.835 165.119 266.701V220.328C165.119 218.194 166.849 216.463 168.983 216.463ZM172.847 262.836H192.169V255.107H172.847V262.836ZM172.847 247.378H192.169V224.192H172.847V247.378Z" fill="white" fill-opacity="0.8"/>
</g>
</g>
</svg>
