<svg width="228" height="118" viewBox="0 0 228 118" fill="none" xmlns="http://www.w3.org/2000/svg">
<path fill-rule="evenodd" clip-rule="evenodd" d="M217.315 10.3122L227.884 84.2885C227.96 84.8329 227.999 85.3816 228 85.9308V108.565C228 114.967 222.81 120.158 216.407 120.158H212.156C210.612 127.762 204.669 133.705 197.065 135.248C186.607 137.372 176.408 130.616 174.285 120.158H100.475C100.344 120.14 100.215 120.114 100.088 120.081C98.5598 127.688 92.6289 133.643 85.0281 135.202C74.5748 137.347 64.3617 130.612 62.2169 120.158H53.7153C52.1714 127.762 46.2284 133.705 38.6247 135.248C28.1667 137.372 17.9676 130.616 15.8441 120.158H11.5932C5.19038 120.158 0 114.967 0 108.565V11.9545C0 5.5517 5.19038 0.361328 11.5932 0.361328H205.841C211.6 0.385956 216.476 4.61507 217.315 10.3122ZM204.578 77.6494H219.112L211.383 23.5477H201.196L204.578 77.6494ZM23.1864 116.293C23.1864 122.696 28.3768 127.887 34.7797 127.887C41.1825 127.887 46.3729 122.696 46.3729 116.293C46.3729 109.891 41.1825 104.7 34.7797 104.7C28.3768 104.7 23.1864 109.891 23.1864 116.293ZM69.5593 116.293C69.5593 122.696 74.7497 127.887 81.1525 127.887C87.5554 127.887 92.7458 122.696 92.7458 116.293C92.7458 109.891 87.5554 104.7 81.1525 104.7C74.7497 104.7 69.5593 109.891 69.5593 116.293ZM181.627 116.293C181.627 122.696 186.818 127.887 193.22 127.887C199.623 127.887 204.814 122.696 204.814 116.293C204.814 109.891 199.623 104.7 193.22 104.7C186.818 104.7 181.627 109.891 181.627 116.293ZM216.407 112.429C218.541 112.429 220.271 110.699 220.271 108.565V85.9154C220.272 85.7357 220.259 85.556 220.233 85.3782H200.949C198.906 85.3821 197.213 83.7957 197.085 81.7573L193.22 19.9268C193.215 19.8432 193.213 19.7592 193.213 19.6756C193.217 17.5415 194.951 15.8146 197.085 15.8189H210.293L209.663 11.4058C209.39 9.50401 207.763 8.09158 205.841 8.09013H11.5932C9.4591 8.09013 7.72881 9.82042 7.72881 11.9545V108.565C7.72881 110.699 9.4591 112.429 11.5932 112.429H15.8441C17.3879 104.825 23.3309 98.8824 30.9346 97.3385C41.3926 95.2151 51.5918 101.971 53.7153 112.429H62.2169C63.7762 104.828 69.7313 98.8974 77.3384 97.369C87.8008 95.2672 97.9859 102.044 100.088 112.506C100.215 112.473 100.344 112.447 100.475 112.429H174.285C175.829 104.825 181.772 98.8824 189.375 97.3385C199.833 95.2151 210.032 101.971 212.156 112.429H216.407ZM19.322 15.8186H181.627C183.761 15.8186 185.492 17.5489 185.492 19.683V46.7339C185.492 48.868 183.761 50.5983 181.627 50.5983H19.322C17.1879 50.5983 15.4576 48.868 15.4576 46.7339V19.683C15.4576 17.5489 17.1879 15.8186 19.322 15.8186ZM23.1865 42.8695H42.5085V23.5475H23.1865V42.8695ZM50.2373 42.8695H69.5593V23.5475H50.2373V42.8695ZM77.2882 42.8695H96.6102V23.5475H77.2882V42.8695ZM104.339 42.8695H123.661V23.5475H104.339V42.8695ZM131.39 42.8695H150.712V23.5475H131.39V42.8695ZM158.441 42.8695H177.763V23.5475H158.441V42.8695ZM127.525 54.4632H19.322C17.1879 54.4632 15.4576 56.1935 15.4576 58.3276V85.3785C15.4576 87.5126 17.1879 89.2429 19.322 89.2429H127.525C129.66 89.2429 131.39 87.5126 131.39 85.3785V58.3276C131.39 56.1935 129.66 54.4632 127.525 54.4632ZM42.5085 81.5141H23.1865V62.192H42.5085V81.5141ZM69.5593 81.5141H50.2373V62.192H69.5593V81.5141ZM96.6102 81.5141H77.2882V62.192H96.6102V81.5141ZM123.661 81.5141H104.339V62.192H123.661V81.5141ZM142.983 54.4632H170.034C172.168 54.4632 173.898 56.1935 173.898 58.3276V104.701C173.898 106.835 172.168 108.565 170.034 108.565H142.983C140.849 108.565 139.119 106.835 139.119 104.701V58.3276C139.119 56.1935 140.849 54.4632 142.983 54.4632ZM146.847 100.836H166.169V93.1073H146.847V100.836ZM146.847 85.3785H166.169V62.192H146.847V85.3785Z" fill="white" fill-opacity="0.8"/>
</svg>
