<svg width="52" height="64" viewBox="0 0 52 64" fill="none" xmlns="http://www.w3.org/2000/svg">
<path d="M48.3075 28.4203C48.1117 28.2866 47.891 28.2099 47.6655 28.1806C49.9032 20.9082 51.1313 13.7837 51.3071 6.99755C51.3622 4.86327 50.3193 2.01367 48.2162 0.694827C47.2075 0.0610393 45.5536 -0.46142 43.4072 0.643069C40.0429 2.37891 37.6372 7.48436 35.7045 11.5884C35.5932 11.8247 35.4838 12.0556 35.3759 12.2842C34.9487 10.3213 33.6513 8.64207 31.8066 7.76561C31.372 5.67528 29.7138 4.03759 27.6303 3.61328C27.6079 3.49609 27.5796 3.38086 27.5449 3.26513C27.1157 1.79883 25.8218 0.694827 24.3247 0.517093C23.4814 0.416996 22.6455 0.591312 21.9316 1.00928C21.3232 0.670413 20.6406 0.490238 19.9399 0.490238C17.9814 0.490238 16.3359 1.85645 15.9067 3.68457C13.7656 4.26757 12.1953 6.23241 12.1787 8.51659C9.73586 9.14744 7.95608 11.355 7.95608 13.9804C7.95608 14.6767 8.08693 15.3657 8.33791 16.0156C7.70412 16.7983 7.35256 17.7783 7.35256 18.8066C7.35256 19.4238 7.47951 20.0185 7.71975 20.5678C6.59475 19.3403 5.01126 18.3369 3.23294 18.4023C2.61087 18.4223 2.1221 18.9419 2.14115 19.5634C2.16019 20.1728 2.66068 20.6547 3.26663 20.6547C3.30472 20.6562 3.33939 20.6528 3.37552 20.6528C4.43118 20.6528 5.41214 21.351 6.126 22.1616C4.33987 22.6767 2.18607 23.5141 1.18168 25.4091C0.576698 26.5522 0.505897 27.954 0.909216 29.5605C0.714393 29.8862 0.607459 30.2646 0.627479 30.6674L2.54447 57.9091C2.71927 61.3251 5.53469 63.9999 8.95412 63.9999H40.5703C43.9897 63.9999 46.8051 61.3251 46.9784 57.9296L48.9438 29.7407C48.9438 29.7343 48.9452 29.7275 48.9452 29.7206C48.9765 29.2011 48.7367 28.7158 48.3075 28.4203ZM36.2944 15.5053C36.7407 14.6733 37.227 13.6411 37.7417 12.5478C39.4345 8.95262 41.7548 4.02978 44.4389 2.64453C45.4184 2.13965 46.2621 2.12939 47.019 2.60156C48.3242 3.42138 49.0927 5.49023 49.0551 6.93895C48.8827 13.5976 47.6664 20.6049 45.4389 27.7685C45.3657 28.0038 45.2036 28.4789 44.9726 29.1313L43.0532 29.9838C43.0117 30.0029 42.9711 30.0234 42.9316 30.0478C42.3774 30.3803 41.7558 30.5444 41.1337 30.5512C40.5122 30.5444 39.8916 30.3803 39.3374 30.0478L38.5346 29.5659C37.6108 29.0117 36.5756 28.7348 35.5405 28.7348C35.5283 28.7348 35.5161 28.7368 35.5024 28.7368C34.455 28.7299 33.4052 29.0038 32.4702 29.5659L31.6684 30.0478C31.2212 30.3159 30.727 30.4467 30.2265 30.5029C30.2549 30.4052 30.2876 30.309 30.3169 30.2123C30.6255 29.164 30.9565 28.1298 31.3032 27.1039C31.435 26.7138 31.5727 26.3266 31.7099 25.9404C31.9995 25.1259 32.3022 24.3222 32.6157 23.5234C32.7553 23.1665 32.8916 22.8061 33.0356 22.4526C34.0185 20.0566 35.102 17.7334 36.2944 15.5053ZM21.937 18.1767C22.0683 18.0078 22.1968 17.8437 22.3188 17.6836C22.3188 17.6816 22.3198 17.6801 22.3208 17.6792C22.4097 17.561 22.4873 17.438 22.5527 17.3149C22.8301 16.7939 22.895 16.208 22.7666 15.6357L27.4678 14.6079C27.4995 14.7519 27.5332 14.895 27.5874 15.0278C27.7978 15.5434 28.1743 15.9726 28.6977 16.2724C28.8691 16.3672 29.0483 16.4614 29.2329 16.5595C29.3847 16.6396 29.5371 16.7226 29.6899 16.8061C29.7632 16.8457 29.8374 16.8847 29.9106 16.9257C30.0449 17.0009 30.1743 17.0844 30.3047 17.1665C30.4165 17.2353 30.5268 17.3061 30.6347 17.3818C30.7597 17.4682 30.8794 17.5639 30.9985 17.6611C31.1035 17.7465 31.2036 17.8403 31.3027 17.936C31.4096 18.0405 31.5156 18.1474 31.6137 18.2646C31.7871 18.4716 31.9536 18.687 32.0898 18.9448C31.6123 19.999 31.1631 21.0747 30.7285 22.1591C30.6606 22.3271 30.5888 22.4907 30.5224 22.6582C29.2881 22.9711 28.0952 23.5571 26.622 24.6054C24.7656 25.9243 23.3838 26.2748 21.1064 25.9448L20.4228 22.8149C19.959 20.6987 20.9648 19.417 21.937 18.1767ZM27.5219 11.3369C27.5512 11.3315 27.5805 11.3281 27.6098 11.3281C27.8227 11.3281 28.0219 11.4804 28.0683 11.6943C28.1045 11.8564 28.0434 11.9839 28.0029 12.0454C27.9634 12.1064 27.8745 12.2134 27.7134 12.248L21.4917 13.6098C21.2441 13.664 20.9917 13.4995 20.9375 13.2539C20.8838 13.0073 21.0469 12.7539 21.2934 12.6997L24.5991 11.9765L27.5219 11.3369ZM23.8818 28.7573C23.7964 28.7631 23.7095 28.7651 23.624 28.7744C23.0098 28.8364 22.4038 28.9916 21.8286 29.2504L21.6133 28.2651C21.938 28.2919 22.2612 28.3193 22.564 28.3193C24.5283 28.3193 26.1098 27.7343 27.9272 26.4414C28.4995 26.0336 29.0063 25.725 29.4883 25.4697C29.3847 25.7636 29.2822 26.0561 29.1821 26.3515C29.1098 26.5629 29.0322 26.7714 28.9624 26.9843C28.6313 27.9868 28.3159 28.997 28.0219 30.0165L27.2729 29.5683C26.3496 29.0141 25.3144 28.7368 24.2793 28.7368C24.2656 28.7368 24.2514 28.7392 24.2378 28.7392C24.1186 28.7368 24 28.7504 23.8818 28.7573ZM10.4102 17.1103L11.148 16.5024L10.6694 15.6767C10.3696 15.1587 10.211 14.5727 10.211 13.9804C10.211 12.1557 11.6401 10.6679 13.4649 10.5918L14.832 10.5342L14.5132 9.20262C14.4595 8.97996 14.4321 8.76024 14.4321 8.55174C14.4321 7.10106 15.5654 5.87939 17.0112 5.76903L18.0522 5.68993V4.56933C18.085 3.55713 18.9194 2.74267 19.9409 2.74267C20.5288 2.74267 20.9502 3.01074 21.1992 3.23584L21.9888 3.94873L22.7456 3.20117C23.0923 2.85888 23.5688 2.69873 24.06 2.75488C24.6636 2.82617 25.2085 3.29687 25.3843 3.90185C25.4438 4.10449 25.4609 4.30029 25.4375 4.49999L25.3056 5.7578H26.5737C28.1924 5.7578 29.5459 7.02294 29.6577 8.63768L29.7085 9.37791L30.4077 9.62303C32.1679 10.2417 33.3261 11.9072 33.2866 13.7715C33.2695 14.5678 33.0127 15.3344 32.5473 16.0068C31.7939 15.3672 30.9819 14.936 30.2993 14.5766C30.1225 14.4829 29.9516 14.393 29.7793 14.2973C29.7304 14.27 29.6718 14.2231 29.6518 14.1045C29.625 13.9424 29.6855 13.7475 29.8086 13.6045C30.2993 13.0346 30.4966 12.2578 30.3379 11.5244L30.2016 10.9038C30.0654 10.2773 29.6914 9.74266 29.1509 9.39549C28.6113 9.04979 27.9692 8.93407 27.3442 9.07127L27.042 9.13768C27.0386 9.13865 27.0356 9.13768 27.0322 9.13865L23.7265 9.8618L20.501 10.5659C19.876 10.7026 19.3408 11.0752 18.9941 11.6167C18.647 12.1562 18.5322 12.7993 18.6685 13.4243L18.7358 13.7304V13.7339C18.7358 13.7353 18.7373 13.7363 18.7373 13.7387L18.8037 14.0439C18.9668 14.7939 19.4883 15.4257 20.1968 15.7299C20.3726 15.8051 20.519 15.9482 20.5698 16.0937C20.5991 16.1772 20.582 16.2197 20.5166 16.3281V16.3291C20.4053 16.479 20.2847 16.6308 20.1621 16.7876C20.0381 16.9453 19.9097 17.1108 19.7788 17.2822C19.7349 17.3393 19.6934 17.3989 19.6494 17.4575C19.5557 17.5849 19.4624 17.7143 19.3701 17.8496C19.3193 17.9228 19.271 17.9985 19.2212 18.0752C19.1357 18.207 19.0532 18.3427 18.9722 18.4829C18.9253 18.5639 18.8789 18.644 18.834 18.728C18.749 18.8857 18.6728 19.0512 18.5972 19.2207C18.5645 19.2924 18.5298 19.3613 18.5005 19.437C18.4014 19.6821 18.3135 19.9389 18.2437 20.2094C18.2324 20.2524 18.228 20.2983 18.2178 20.3422C18.1636 20.5722 18.1196 20.8095 18.0913 21.0576C18.0806 21.1567 18.0781 21.2602 18.0713 21.3627C18.062 21.4956 18.0454 21.622 18.0454 21.7602C18.0405 21.7548 18.0361 21.749 18.0317 21.7436C18.0161 21.7231 18 21.705 17.9853 21.685C17.7896 21.4267 17.5933 21.1894 17.3965 20.9638C17.3345 20.893 17.2715 20.8247 17.2085 20.7568C17.043 20.5781 16.8774 20.4101 16.7105 20.2524C16.6567 20.2016 16.6025 20.1464 16.5474 20.0966C16.3369 19.9086 16.125 19.7363 15.9121 19.583C15.8525 19.5405 15.7915 19.5044 15.7319 19.4638C15.5718 19.3564 15.4121 19.2573 15.2495 19.1699C15.1709 19.1269 15.0933 19.0854 15.0132 19.0468C14.8452 18.9648 14.6763 18.895 14.5064 18.8339C14.4502 18.8139 14.3936 18.7866 14.3374 18.7685C14.1528 18.7099 13.9673 18.6626 13.7803 18.6279C13.7588 18.6235 13.7373 18.6255 13.7158 18.6225C13.6777 18.6157 13.6406 18.601 13.6021 18.5952C13.4712 18.5761 13.3472 18.5839 13.2188 18.5747C13.1289 18.5693 13.04 18.5503 12.9497 18.5503C12.9229 18.5503 12.8945 18.5571 12.8667 18.5571C12.6919 18.559 12.523 18.5796 12.353 18.6005C12.2686 18.6118 12.1841 18.6186 12.0996 18.6342C11.8775 18.6748 11.6626 18.7314 11.4497 18.7988C11.417 18.809 11.3853 18.8169 11.3526 18.8281C10.792 19.0185 10.2603 19.288 9.76271 19.6132C9.66017 19.3598 9.60597 19.0874 9.60597 18.8066C9.60744 18.1474 9.90041 17.5293 10.4102 17.1103ZM3.17386 26.4619C3.65042 25.5644 4.80716 24.8793 6.81545 24.3051C7.7549 24.0371 8.62648 23.5356 9.334 22.8598C9.6548 22.5527 9.95558 22.2924 10.2461 22.0561C11.1538 21.3183 11.9365 20.9169 12.645 20.8256C12.6611 20.8237 12.6768 20.8212 12.6924 20.8203C12.9165 20.7954 13.1338 20.8022 13.3447 20.8393C13.3999 20.8496 13.4561 20.8686 13.5127 20.8833C13.6172 20.9091 13.7207 20.935 13.8257 20.977C13.8931 21.0029 13.9605 21.0424 14.0293 21.0737C14.127 21.121 14.2241 21.164 14.3223 21.2236C14.3989 21.2695 14.4751 21.3295 14.5518 21.3823C14.6431 21.4462 14.7344 21.5048 14.8267 21.5795C14.9121 21.6479 14.9981 21.7314 15.0835 21.809C15.1689 21.8867 15.2549 21.958 15.3403 22.0444C15.4351 22.1401 15.5308 22.2514 15.6265 22.3588C15.7041 22.4453 15.7817 22.5253 15.8608 22.6191C15.9678 22.7475 16.0757 22.8935 16.1836 23.0356C16.2524 23.1259 16.3203 23.207 16.3887 23.3027C16.5117 23.4741 16.6353 23.664 16.7593 23.8535C16.8135 23.9365 16.8687 24.0112 16.9224 24.0966C17.1016 24.3793 17.2817 24.6801 17.4629 24.9999C18.292 26.4628 18.5669 28.624 18.2065 30.5063C18.1465 30.5004 18.0879 30.4916 18.0283 30.4824C17.5991 30.4091 17.186 30.2719 16.8096 30.0463L16.0063 29.5644C15.083 29.0102 14.0479 28.7333 13.0127 28.7333C13.0005 28.7333 12.9883 28.7353 12.9746 28.7353C11.9273 28.7285 10.8775 29.0024 9.9424 29.5644L9.55177 29.7988C8.87014 30.2075 8.10695 30.4135 7.34328 30.4203C6.57815 30.4135 5.81594 30.2084 5.13479 29.7988L3.61966 28.8886C3.61966 28.8886 3.61868 28.8886 3.61868 28.8876C3.41898 28.7695 3.20413 28.6879 2.98343 28.6479C2.80667 27.7568 2.86966 27.0361 3.17386 26.4619ZM44.7348 57.7928C44.621 60.0091 42.7934 61.746 40.5747 61.746H8.95754C6.73733 61.746 4.91067 60.0091 4.79593 57.7714L2.92142 31.1435L3.9014 31.7319C4.96341 32.3691 6.15627 32.6825 7.34573 32.6757C8.53615 32.6825 9.72756 32.3696 10.7896 31.7319L11.1807 31.4975C11.7344 31.164 12.3555 30.9994 12.9771 30.9926C13.5986 30.9994 14.2192 31.164 14.7744 31.4975L15.5776 31.9794C16.5938 32.5888 17.7446 32.85 18.8823 32.788C18.9834 32.7836 19.085 32.7836 19.1875 32.7748C19.1997 32.7734 19.2114 32.7665 19.2246 32.7656C19.9936 32.6791 20.7485 32.4369 21.4443 32.0405C21.5098 32.0165 21.5796 32.0156 21.6406 31.9794L22.4438 31.4975C22.9975 31.164 23.6182 30.9994 24.2402 30.9926C24.8618 30.9994 25.4824 31.164 26.0376 31.4975L26.8408 31.9794C27.6933 32.4897 28.6421 32.7543 29.5957 32.7939C29.6147 32.7949 29.6352 32.7973 29.6543 32.7973C29.9829 32.8075 30.312 32.7973 30.6386 32.7509C30.8257 32.727 31.0068 32.6801 31.1904 32.6381C31.2793 32.6171 31.3686 32.5976 31.4565 32.5717C31.9565 32.4335 32.4463 32.2519 32.9023 31.9784L33.7055 31.496C34.2597 31.163 34.8803 30.9985 35.5019 30.9916C36.1235 30.9985 36.7446 31.163 37.2998 31.496L38.103 31.9784C39.0332 32.5356 40.0771 32.8095 41.1201 32.8051C41.1372 32.8051 41.1547 32.8085 41.1718 32.8085C42.1835 32.8085 43.1957 32.5449 44.1035 32.0156L46.3134 31.0331C46.3608 31.0121 46.3945 30.9711 46.4384 30.9443L46.6108 30.8676L44.7348 57.7928Z" fill="black"/>
</svg>
